<?xml version="1.0" encoding="us-ascii" standalone="no"?><svg xmlns="http://www.w3.org/2000/svg" xmlns:xlink="http://www.w3.org/1999/xlink" contentStyleType="text/css" height="769px" preserveAspectRatio="none" style="width:676px;height:769px;background:#FFFFFF;" version="1.1" viewBox="0 0 676 769" width="676px" zoomAndPan="magnify"><defs/><g><!--cluster Blockchain Layer--><g id="cluster_Blockchain Layer"><path d="M24.76,511 L118.76,511 A3.75,3.75 0 0 1 121.26,513.5 L128.26,530.8359 L268.76,530.8359 A2.5,2.5 0 0 1 271.26,533.3359 L271.26,759.5 A2.5,2.5 0 0 1 268.76,762 L24.76,762 A2.5,2.5 0 0 1 22.26,759.5 L22.26,513.5 A2.5,2.5 0 0 1 24.76,511 " fill="none" style="stroke:#000000;stroke-width:1.5;"/><line style="stroke:#000000;stroke-width:1.5;" x1="22.26" x2="128.26" y1="530.8359" y2="530.8359"/><text fill="#000000" font-family="sans-serif" font-size="11" font-weight="bold" lengthAdjust="spacing" textLength="93" x="26.26" y="524.4189">Blockchain Layer</text></g><!--cluster Backend Services--><g id="cluster_Backend Services"><path d="M297.76,203 L396.76,203 A3.75,3.75 0 0 1 399.26,205.5 L406.26,222.8359 L666.76,222.8359 A2.5,2.5 0 0 1 669.26,225.3359 L669.26,634.5 A2.5,2.5 0 0 1 666.76,637 L297.76,637 A2.5,2.5 0 0 1 295.26,634.5 L295.26,205.5 A2.5,2.5 0 0 1 297.76,203 " fill="none" style="stroke:#000000;stroke-width:1.5;"/><line style="stroke:#000000;stroke-width:1.5;" x1="295.26" x2="406.26" y1="222.8359" y2="222.8359"/><text fill="#000000" font-family="sans-serif" font-size="11" font-weight="bold" lengthAdjust="spacing" textLength="98" x="299.26" y="216.4189">Backend Services</text></g><!--cluster Frontend--><g id="cluster_Frontend"><path d="M128.76,6 L179.76,6 A3.75,3.75 0 0 1 182.26,8.5 L189.26,25.8359 L424.76,25.8359 A2.5,2.5 0 0 1 427.26,28.3359 L427.26,145.5 A2.5,2.5 0 0 1 424.76,148 L128.76,148 A2.5,2.5 0 0 1 126.26,145.5 L126.26,8.5 A2.5,2.5 0 0 1 128.76,6 " fill="none" style="stroke:#000000;stroke-width:1.5;"/><line style="stroke:#000000;stroke-width:1.5;" x1="126.26" x2="189.26" y1="25.8359" y2="25.8359"/><text fill="#000000" font-family="sans-serif" font-size="11" font-weight="bold" lengthAdjust="spacing" textLength="50" x="130.26" y="19.4189">Frontend</text></g><!--cluster External Services--><g id="cluster_External Services"><path d="M57.76,210 L153.76,210 A3.75,3.75 0 0 1 156.26,212.5 L163.26,229.8359 L268.76,229.8359 A2.5,2.5 0 0 1 271.26,232.3359 L271.26,319.5 A2.5,2.5 0 0 1 268.76,322 L57.76,322 A2.5,2.5 0 0 1 55.26,319.5 L55.26,212.5 A2.5,2.5 0 0 1 57.76,210 " fill="none" style="stroke:#000000;stroke-width:1.5;"/><line style="stroke:#000000;stroke-width:1.5;" x1="55.26" x2="163.26" y1="229.8359" y2="229.8359"/><text fill="#000000" font-family="sans-serif" font-size="11" font-weight="bold" lengthAdjust="spacing" textLength="95" x="59.26" y="223.4189">External Services</text></g><!--entity SC--><g id="elem_SC"><rect fill="#F1F1F1" height="61.5078" rx="2.5" ry="2.5" style="stroke:#181818;stroke-width:0.5;" width="105" x="53.76" y="559"/><text fill="#000000" font-family="sans-serif" font-size="11" lengthAdjust="spacing" textLength="78" x="63.76" y="580.4189">Smart Contracts</text><text fill="#000000" font-family="sans-serif" font-size="11" lengthAdjust="spacing" textLength="83" x="63.76" y="594.2549">Staking/Rewards</text><text fill="#000000" font-family="sans-serif" font-size="11" lengthAdjust="spacing" textLength="85" x="63.76" y="608.0908">(Foundry/Solidity)</text></g><!--entity DAI--><g id="elem_DAI"><rect fill="#F1F1F1" height="47.6719" rx="2.5" ry="2.5" style="stroke:#181818;stroke-width:0.5;" width="69" x="38.76" y="698"/><text fill="#000000" font-family="sans-serif" font-size="11" lengthAdjust="spacing" textLength="49" x="48.76" y="719.4189">DAI Token</text><text fill="#000000" font-family="sans-serif" font-size="11" lengthAdjust="spacing" textLength="41" x="48.76" y="733.2549">Contract</text></g><!--entity Oracle--><g id="elem_Oracle"><rect fill="#F1F1F1" height="47.6719" rx="2.5" ry="2.5" style="stroke:#181818;stroke-width:0.5;" width="112" x="143.26" y="698"/><text fill="#000000" font-family="sans-serif" font-size="11" lengthAdjust="spacing" textLength="83" x="153.26" y="719.4189">Chainlink Oracles</text><text fill="#000000" font-family="sans-serif" font-size="11" lengthAdjust="spacing" textLength="92" x="153.26" y="733.2549">Price/Volatility/Data</text></g><!--entity API--><g id="elem_API"><rect fill="#F1F1F1" height="61.5078" rx="2.5" ry="2.5" style="stroke:#181818;stroke-width:0.5;" width="96" x="311.26" y="251"/><text fill="#000000" font-family="sans-serif" font-size="11" lengthAdjust="spacing" textLength="44" x="321.26" y="272.4189">Flask API</text><text fill="#000000" font-family="sans-serif" font-size="11" lengthAdjust="spacing" textLength="76" x="321.26" y="286.2549">REST Endpoints</text><text fill="#000000" font-family="sans-serif" font-size="11" lengthAdjust="spacing" textLength="47" x="321.26" y="300.0908">JWT Auth</text></g><!--entity Worker--><g id="elem_Worker"><rect fill="#F1F1F1" height="61.5078" rx="2.5" ry="2.5" style="stroke:#181818;stroke-width:0.5;" width="95" x="311.76" y="388"/><text fill="#000000" font-family="sans-serif" font-size="11" lengthAdjust="spacing" textLength="75" x="321.76" y="409.4189">Celery Workers</text><text fill="#000000" font-family="sans-serif" font-size="11" lengthAdjust="spacing" textLength="58" x="321.76" y="423.2549">Async Jobs</text><text fill="#000000" font-family="sans-serif" font-size="11" lengthAdjust="spacing" textLength="69" x="321.76" y="437.0908">Rewards Calc</text></g><!--entity DB--><g id="elem_DB"><rect fill="#F1F1F1" height="61.5078" rx="2.5" ry="2.5" style="stroke:#181818;stroke-width:0.5;" width="87" x="418.76" y="559"/><text fill="#000000" font-family="sans-serif" font-size="11" lengthAdjust="spacing" textLength="46" x="428.76" y="580.4189">MongoDB</text><text fill="#000000" font-family="sans-serif" font-size="11" lengthAdjust="spacing" textLength="67" x="428.76" y="594.2549">Users/Metrics</text><text fill="#000000" font-family="sans-serif" font-size="11" lengthAdjust="spacing" textLength="34" x="428.76" y="608.0908">History</text></g><!--entity Redis--><g id="elem_Redis"><rect fill="#F1F1F1" height="47.6719" rx="2.5" ry="2.5" style="stroke:#181818;stroke-width:0.5;" width="86" x="567.26" y="395"/><text fill="#000000" font-family="sans-serif" font-size="11" lengthAdjust="spacing" textLength="27" x="577.26" y="416.4189">Redis</text><text fill="#000000" font-family="sans-serif" font-size="11" lengthAdjust="spacing" textLength="66" x="577.26" y="430.2549">Cache/Queue</text></g><!--entity NexjsApp--><g id="elem_NexjsApp"><rect fill="#F1F1F1" height="61.5078" rx="2.5" ry="2.5" style="stroke:#181818;stroke-width:0.5;" width="77" x="325.76" y="62"/><text fill="#000000" font-family="sans-serif" font-size="11" lengthAdjust="spacing" textLength="56" x="335.76" y="83.4189">Next.js App</text><text fill="#000000" font-family="sans-serif" font-size="11" lengthAdjust="spacing" textLength="57" x="335.76" y="97.2549">wagmi/viem</text><text fill="#000000" font-family="sans-serif" font-size="11" lengthAdjust="spacing" textLength="55" x="335.76" y="111.0908">RainbowKit</text></g><!--entity Dashboard--><g id="elem_Dashboard"><rect fill="#F1F1F1" height="61.5078" rx="2.5" ry="2.5" style="stroke:#181818;stroke-width:0.5;" width="121" x="169.76" y="62"/><text fill="#000000" font-family="sans-serif" font-size="11" lengthAdjust="spacing" textLength="101" x="179.76" y="83.4189">Analytics Dashboard</text><text fill="#000000" font-family="sans-serif" font-size="11" lengthAdjust="spacing" textLength="44" x="179.76" y="97.2549">Recharts</text><text fill="#000000" font-family="sans-serif" font-size="11" lengthAdjust="spacing" textLength="43" x="179.76" y="111.0908">ChakraUI</text></g><!--entity Notif--><g id="elem_Notif"><rect fill="#F1F1F1" height="47.6719" rx="2.5" ry="2.5" style="stroke:#181818;stroke-width:0.5;" width="79" x="175.76" y="258"/><text fill="#000000" font-family="sans-serif" font-size="11" lengthAdjust="spacing" textLength="51" x="185.76" y="279.4189">Email/Push</text><text fill="#000000" font-family="sans-serif" font-size="11" lengthAdjust="spacing" textLength="59" x="185.76" y="293.2549">Notifications</text></g><!--entity Monitor--><g id="elem_Monitor"><rect fill="#F1F1F1" height="47.6719" rx="2.5" ry="2.5" style="stroke:#181818;stroke-width:0.5;" width="69" x="71.76" y="258"/><text fill="#000000" font-family="sans-serif" font-size="11" lengthAdjust="spacing" textLength="49" x="81.76" y="279.4189">Monitoring</text><text fill="#000000" font-family="sans-serif" font-size="11" lengthAdjust="spacing" textLength="34" x="81.76" y="293.2549">&amp; Logs</text></g><!--link Frontend to API--><g id="link_Frontend_API"><path d="M141.4457,148.0746 C141.4972,148.1852 141.5491,148.2956 141.6013,148.4058 C141.7057,148.6262 141.8115,148.8459 141.9185,149.0649 C142.1327,149.5027 142.3522,149.9375 142.5772,150.369 C143.4772,152.0949 144.4647,153.7677 145.548,155.37 C147.7145,158.5747 150.2638,161.4975 153.26,164 C169.18,177.3 227.28,163.64 246.26,172 C284.68,188.92 314.083,220.1865 334.343,246.1965 " fill="none" id="Frontend-to-API" style="stroke:#181818;stroke-width:1.0;"/><polygon fill="#181818" points="338.03,250.93,335.6551,241.3718,334.9575,246.9854,329.3438,246.2878,338.03,250.93" style="stroke:#181818;stroke-width:1.0;"/><text fill="#000000" font-family="sans-serif" font-size="11" lengthAdjust="spacing" textLength="54" x="272.26" y="184.4189">HTTP/REST</text></g><!--link Frontend to SC--><g id="link_Frontend_SC"><path d="M126.0141,101.1749 C125.931,101.2501 125.8473,101.3259 125.7631,101.4022 C125.5947,101.5547 125.4243,101.7095 125.2519,101.8664 C124.5622,102.494 123.8404,103.156 123.0891,103.8511 C117.0788,109.4122 109.1838,117.0969 100.78,126.3038 C83.9725,144.7175 65.13,169.22 55.26,195 C6,323.67 62.3502,485.8824 90.5102,553.3924 " fill="none" id="Frontend-to-SC" style="stroke:#181818;stroke-width:1.0;"/><polygon fill="#181818" points="92.82,558.93,93.0469,549.0838,90.8951,554.3154,85.6635,552.1636,92.82,558.93" style="stroke:#181818;stroke-width:1.0;"/><text fill="#000000" font-family="sans-serif" font-size="11" lengthAdjust="spacing" textLength="51" x="39.26" y="355.4189">Web3 RPC</text></g><!--link API to DB--><g id="link_API_DB"><path d="M402.3,313.29 C412.25,321.95 422.03,332.04 429.26,343 C467.92,401.6 475.98,424.89 472.26,495 C471.13,516.31 469.2994,534.2545 467.0494,552.6245 " fill="none" id="API-to-DB" style="stroke:#181818;stroke-width:1.0;"/><polygon fill="#181818" points="466.32,558.58,471.3845,550.1331,466.9279,553.6171,463.4438,549.1605,466.32,558.58" style="stroke:#181818;stroke-width:1.0;"/><text fill="#000000" font-family="sans-serif" font-size="11" lengthAdjust="spacing" textLength="53" x="473.26" y="423.9189">Read/Write</text></g><!--link API to Redis--><g id="link_API_Redis"><path d="M407.48,304.37 C431.45,315.35 460.69,329.27 486.26,343 C516.52,359.24 544.6794,376.2982 569.1294,391.6582 " fill="none" id="API-to-Redis" style="stroke:#181818;stroke-width:1.0;"/><polygon fill="#181818" points="574.21,394.85,568.7169,386.6753,569.9761,392.1902,564.4612,393.4495,574.21,394.85" style="stroke:#181818;stroke-width:1.0;"/><text fill="#000000" font-family="sans-serif" font-size="11" lengthAdjust="spacing" textLength="31" x="511.26" y="355.4189">Cache</text></g><!--link API to Worker--><g id="link_API_Worker"><path d="M359.26,313.3 C359.26,335.53 359.26,359.59 359.26,381.8 " fill="none" id="API-to-Worker" style="stroke:#181818;stroke-width:1.0;"/><polygon fill="#181818" points="359.26,387.8,363.26,378.8,359.26,382.8,355.26,378.8,359.26,387.8" style="stroke:#181818;stroke-width:1.0;"/><text fill="#000000" font-family="sans-serif" font-size="11" lengthAdjust="spacing" textLength="60" x="360.26" y="355.4189">Trigger Jobs</text></g><!--link Worker to SC--><g id="link_Worker_SC"><path d="M311.73,433.16 C280.87,443.07 240.69,458.63 209.26,480 C177.39,501.67 151.6929,530.0206 132.5129,554.0506 " fill="none" id="Worker-to-SC" style="stroke:#181818;stroke-width:1.0;"/><polygon fill="#181818" points="128.77,558.74,137.5107,554.2012,131.8891,554.8322,131.2581,549.2106,128.77,558.74" style="stroke:#181818;stroke-width:1.0;"/><text fill="#000000" font-family="sans-serif" font-size="11" lengthAdjust="spacing" textLength="52" x="210.26" y="492.4189">Read state</text></g><!--link Worker to Oracle--><g id="link_Worker_Oracle"><path d="M344.25,450.03 C320.66,496.93 273.19,590.25 230.26,668 C224.8,677.89 221.6024,683.5144 216.1424,692.7544 " fill="none" id="Worker-to-Oracle" style="stroke:#181818;stroke-width:1.0;"/><polygon fill="#181818" points="213.09,697.92,221.1123,692.2066,215.6336,693.6154,214.2249,688.1367,213.09,697.92" style="stroke:#181818;stroke-width:1.0;"/><text fill="#000000" font-family="sans-serif" font-size="11" lengthAdjust="spacing" textLength="51" x="318.26" y="594.9189">Fetch data</text></g><!--link Worker to DB--><g id="link_Worker_DB"><path d="M376.09,450.12 C383.9,463.89 393.4,480.36 402.26,495 C415.29,516.53 427.2955,535.3958 439.1755,553.7158 " fill="none" id="Worker-to-DB" style="stroke:#181818;stroke-width:1.0;"/><polygon fill="#181818" points="442.44,558.75,440.8993,549.0224,439.7196,554.5549,434.1871,553.3751,442.44,558.75" style="stroke:#181818;stroke-width:1.0;"/><text fill="#000000" font-family="sans-serif" font-size="11" lengthAdjust="spacing" textLength="64" x="403.26" y="492.4189">Store metrics</text></g><!--link Worker to Notif--><g id="link_Worker_Notif"><path d="M326.44,387.87 C316.12,378.35 304.69,367.76 294.26,358 C275.76,340.68 259.323,325.0798 243.723,310.2098 " fill="none" id="Worker-to-Notif" style="stroke:#181818;stroke-width:1.0;"/><polygon fill="#181818" points="239.38,306.07,243.1347,315.1751,242.9992,309.5198,248.6544,309.3844,239.38,306.07" style="stroke:#181818;stroke-width:1.0;"/><text fill="#000000" font-family="sans-serif" font-size="11" lengthAdjust="spacing" textLength="55" x="295.26" y="355.4189">Send alerts</text></g><!--link SC to DAI--><g id="link_SC_DAI"><path d="M92.27,621.05 C88.14,631.03 83.99,642.32 81.26,653 C77.52,667.63 75.9981,678.4991 74.9381,691.7591 " fill="none" id="SC-to-DAI" style="stroke:#181818;stroke-width:1.0;"/><polygon fill="#181818" points="74.46,697.74,79.1644,689.0874,74.8584,692.7559,71.1899,688.4499,74.46,697.74" style="stroke:#181818;stroke-width:1.0;"/><text fill="#000000" font-family="sans-serif" font-size="11" lengthAdjust="spacing" textLength="68" x="82.26" y="665.4189">Transfer/Lock</text></g><!--link SC to Oracle--><g id="link_SC_Oracle"><path d="M134.7584,625.843 C142.7084,635.823 147.67,642.4 155.26,653 C165.74,667.63 173.5484,679.5493 181.9284,692.8893 " fill="none" id="SC-Oracle" style="stroke:#181818;stroke-width:1.0;"/><polygon fill="#181818" points="131.02,621.15,133.499,630.6818,134.1353,625.0608,139.7563,625.6972,131.02,621.15" style="stroke:#181818;stroke-width:1.0;"/><polygon fill="#181818" points="185.12,697.97,183.7197,688.2212,182.4603,693.7361,176.9454,692.4767,185.12,697.97" style="stroke:#181818;stroke-width:1.0;"/><text fill="#000000" font-family="sans-serif" font-size="11" lengthAdjust="spacing" textLength="55" x="166.26" y="665.4189">Price feeds</text></g><!--link Monitor to API--><g id="link_Monitor_API"><path d="M113.22,257.94 C120.66,237.14 134.69,208.37 158.26,195 C201.94,170.22 224.81,175.91 271.26,195 C298.68,206.27 318.4064,225.9495 334.1764,246.0495 " fill="none" id="Monitor-to-API" style="stroke:#181818;stroke-width:1.0;stroke-dasharray:7.0,7.0;"/><polygon fill="#181818" points="337.88,250.77,335.4716,241.2202,334.7937,246.8362,329.1776,246.1583,337.88,250.77" style="stroke:#181818;stroke-width:1.0;"/><text fill="#000000" font-family="sans-serif" font-size="11" lengthAdjust="spacing" textLength="24" x="213.26" y="184.4189">Logs</text></g><!--link Monitor to Worker--><g id="link_Monitor_Worker"><path d="M128.5,306.01 C137.26,314.26 147.73,323.2 158.26,330 C207.21,361.64 263.7956,384.855 305.9556,400.055 " fill="none" id="Monitor-to-Worker" style="stroke:#181818;stroke-width:1.0;stroke-dasharray:7.0,7.0;"/><polygon fill="#181818" points="311.6,402.09,304.4901,395.2746,306.8964,400.3942,301.7768,402.8005,311.6,402.09" style="stroke:#181818;stroke-width:1.0;"/><text fill="#000000" font-family="sans-serif" font-size="11" lengthAdjust="spacing" textLength="35" x="205.26" y="355.4189">Metrics</text></g><!--link Monitor to SC--><g id="link_Monitor_SC"><path d="M106.26,306.25 C106.26,360.92 106.26,491.62 106.26,552.69 " fill="none" id="Monitor-to-SC" style="stroke:#181818;stroke-width:1.0;stroke-dasharray:7.0,7.0;"/><polygon fill="#181818" points="106.26,558.69,110.26,549.69,106.26,553.69,102.26,549.69,106.26,558.69" style="stroke:#181818;stroke-width:1.0;"/><text fill="#000000" font-family="sans-serif" font-size="11" lengthAdjust="spacing" textLength="33" x="107.26" y="423.9189">Events</text></g><!--SRC=[PLHDRzim3BtxLt0zxEFG6iLkmp30SPmrNTfbiRiSvXqKct5Kov8XAMtTOVzzb9GO2UQJmFT8yJrIVbFZbak4LPOMoVtNHGQLOCP4aMcvx9bc7LIgwvL4QNCx20IDbMMo4NX2eI9iB-nC4Oc_8bnVHr7FgfOr21SJeQgssZ4kOS46r1Vm9mBwVkKTqnPIIjAiigQKkMLKiebN-CnqJO7tCxMNjHxYN0bUSpjy-0tCG9w60jDa3eLgKPRoMCNZ50-4rDqgk6pXEu42gUHIymhZdqemomLLZAVCCfyLAD7VqzRfWBA67FKJfPcnzHcPr4Aod9TobUK5PBBk5PTEnEswW6HlTxucCGwTe40zm5hf5ZMn4ZF82cxLXiu7kP0oKVcim0g9TqesQZefvOEXnFWEBGcWf1jkhD93q3i9t1NMdA2KLJkCV-nnZnxsuJDTCqrsaR1Hpps-sAj7whVlI_dCcex7JnmxweqCtAZdRpmuIxn7GwIGbKWc1aljm9IPtKQH2gU6PgsT4-H-gzd3FFHuP9mrahrOr5JbVuUpZd4HB_TcLyfxPVcMLpGn9KtemqL6WpWvGNjJohUmK4rW7CBkjdTknoI-k6peYLdndj4oH4SRuFBoYniLV8ARebZ6RgJdO9uIjiRDHrWjqyXHNNGweUWAMHslDRSunhtX1Fb1ZD4mLGeNcZSDdTpqeqDqlCIL0sCPbJk1mcuIF4DRxQ2cdJs5VICvoKNemeASejuiHt1gI3WD9wAxV68ozmqnQRQeumMzL0TzFhlJFndO8jRqNpZu2bTNHykSvMVXKUXXMSz0Bp9xej-9YVu1]--></g></svg>