<?xml version="1.0" encoding="us-ascii" standalone="no"?><svg xmlns="http://www.w3.org/2000/svg" xmlns:xlink="http://www.w3.org/1999/xlink" contentStyleType="text/css" height="689px" preserveAspectRatio="none" style="width:1194px;height:689px;background:#F9F9F9;" version="1.1" viewBox="0 0 1194 689" width="1194px" zoomAndPan="magnify"><defs/><g><rect fill="#F9F9F9" height="689" style="stroke:none;stroke-width:1.0;" width="1194" x="0" y="0"/><!--cluster Client Browser--><g id="cluster_Client Browser"><polygon fill="none" points="214.6497,68.5,224.6497,58.5,394.6497,58.5,394.6497,153.5,384.6497,163.5,214.6497,163.5,214.6497,68.5" style="stroke:#393939;stroke-width:1.0;"/><line style="stroke:#393939;stroke-width:1.0;" x1="384.6497" x2="394.6497" y1="68.5" y2="58.5"/><line style="stroke:#393939;stroke-width:1.0;" x1="214.6497" x2="384.6497" y1="68.5" y2="68.5"/><line style="stroke:#393939;stroke-width:1.0;" x1="384.6497" x2="384.6497" y1="68.5" y2="163.5"/><text fill="#000000" font-family="sans-serif" font-size="14" font-weight="bold" lengthAdjust="spacing" textLength="104" x="248.6497" y="86.0332">Client Browser</text></g><!--cluster Blockchain Network--><g id="cluster_Blockchain Network"><path d="M29.1206,397.6284 C32.5621,389.4814 40.5731,386.9606 46.5913,394.8151 C52.0872,383.0269 60.8559,382.3353 67.9698,393.2945 C73.425,385.0788 80.2771,383.5083 87.0415,391.78 C90.3059,383.4622 97.6369,381.9887 104.0385,388.0791 C112.2299,378.5241 119.1526,381.2867 123.5522,391.7714 C130.7942,381.3782 138.4373,384.2249 144.4519,393.1025 C152.1199,385.7799 160.3901,387.8551 164.1719,397.5943 C174.2781,386.9595 184.2983,389.8776 187.6497,404 C187.8112,404.0757 187.8012,404.1969 187.6666,404.2899 C198.3708,408.0287 199.4473,416.9386 190.5475,423.6019 C199.5585,429.0895 200.6174,435.6552 191.8925,442.4111 C198.7015,446.8289 198.9438,455.0514 191.7811,459.3776 C203.292,464.4528 204.5302,473.5124 193.5566,480.4794 C202.4506,483.7488 204.787,492.1562 196.1045,497.984 C203.1222,503.3177 202.7987,509.6394 195.8427,514.755 C205.0173,519.6359 206.1589,527.7197 196.6019,533.3647 C207.5238,539.1862 206.2255,545.3994 198.0756,552.6763 C205.2452,558.1285 204.4408,565.1221 196.1491,568.7174 C205.0558,574.9612 203.161,584.9949 193.8973,589.2455 C203.8931,595.1522 202.7231,600.8161 194.6153,607.4374 C202.8299,612.6708 202.0477,621.091 193.0147,624.7279 C200.9886,632.831 199.084,639.6671 189.2626,644.3711 C197.3724,655.6687 192.3085,662.8967 180.6497,666.5 C181.8393,666.1107 182.6769,666.9154 182.3753,668.1173 C177.5873,677.4451 170.6759,678.0104 163.8563,670.3292 C157.0032,679.9392 151.4622,677.487 145.5229,669.3834 C139.7735,678.6867 131.6888,681.1479 124.1127,671.4407 C118.5079,680.7345 109.7189,681.2708 104.7346,670.8313 C99.1364,680.0812 90.4908,680.3408 85.7762,669.9773 C80.4239,678.985 72.4202,678.6263 68.1377,668.9665 C63.5587,677.0181 54.6719,677.8671 49.3623,669.8185 C35.4756,682.7451 23.3643,675.8643 19.6497,659.5 C21.5951,659.1596 22.5301,659.8371 22.4182,661.8849 C12.746,657.7912 12.985,650.0192 20.0243,643.7228 C11.5712,638.7058 9.8525,632.8814 18.6112,626.4558 C10.6358,620.6562 11.3794,610.8168 20.0745,606.2229 C9.4878,600.6547 9.2974,592.9492 19.4413,586.7082 C11.0668,582.9691 11.3741,574.9416 18.3942,570.2245 C9.4174,565.8339 8.7924,559.3977 16.6315,553.2598 C6,547.2828 7.8009,537.7761 16.5967,531.7676 C7.9092,527.7928 8.9298,521.0627 15.4044,515.9453 C8.8877,509.7379 9.101,501.8932 18.2683,498.2199 C7.7512,490.9076 10.3147,483.5278 19.283,477.1541 C10.3384,471.8566 10.5754,464.3854 19.6523,459.4641 C12.8431,454.4586 11.3938,446.2956 20.4696,442.0349 C9.3273,435.8545 11.3385,429.3404 19.5698,422.2776 C11.363,411.2545 13.993,402.1796 26.6497,397 C27.5738,396.1382 28.7296,396.394 29.1206,397.6284 " fill="none" style="stroke:#393939;stroke-width:1.0;"/><text fill="#000000" font-family="sans-serif" font-size="14" font-weight="bold" lengthAdjust="spacing" textLength="139" x="34.1497" y="416.5332">Blockchain Network</text></g><!--cluster Docker Host--><g id="cluster_Docker Host"><polygon fill="none" points="622.6497,16,632.6497,6,1153.6497,6,1153.6497,519.5,1143.6497,529.5,622.6497,529.5,622.6497,16" style="stroke:#393939;stroke-width:1.0;"/><line style="stroke:#393939;stroke-width:1.0;" x1="1143.6497" x2="1153.6497" y1="16" y2="6"/><line style="stroke:#393939;stroke-width:1.0;" x1="622.6497" x2="1143.6497" y1="16" y2="16"/><line style="stroke:#393939;stroke-width:1.0;" x1="1143.6497" x2="1143.6497" y1="16" y2="529.5"/><text fill="#000000" font-family="sans-serif" font-size="14" font-weight="bold" lengthAdjust="spacing" textLength="86" x="841.1497" y="33.5332">Docker Host</text></g><!--cluster API Container--><g id="cluster_API Container"><rect fill="none" height="117" rx="3.5" ry="3.5" style="stroke:#393939;stroke-width:1.0;" width="132" x="865.6497" y="222"/><text fill="#000000" font-family="sans-serif" font-size="14" font-weight="bold" lengthAdjust="spacing" textLength="95" x="884.1497" y="238.5332">API Container</text></g><!--cluster Worker Container--><g id="cluster_Worker Container"><rect fill="none" height="117" rx="3.5" ry="3.5" style="stroke:#393939;stroke-width:1.0;" width="182" x="646.6497" y="222"/><text fill="#000000" font-family="sans-serif" font-size="14" font-weight="bold" lengthAdjust="spacing" textLength="124" x="675.6497" y="238.5332">Worker Container</text></g><!--cluster Cache Container--><g id="cluster_Cache Container"><rect fill="none" height="116" rx="3.5" ry="3.5" style="stroke:#393939;stroke-width:1.0;" width="133" x="727.6497" y="389.5"/><text fill="#000000" font-family="sans-serif" font-size="14" font-weight="bold" lengthAdjust="spacing" textLength="117" x="735.6497" y="406.0332">Cache Container</text></g><!--cluster Database Container--><g id="cluster_Database Container"><rect fill="none" height="116" rx="3.5" ry="3.5" style="stroke:#393939;stroke-width:1.0;" width="154" x="965.6497" y="389.5"/><text fill="#000000" font-family="sans-serif" font-size="14" font-weight="bold" lengthAdjust="spacing" textLength="138" x="973.6497" y="406.0332">Database Container</text></g><!--cluster Monitoring Container--><g id="cluster_Monitoring Container"><rect fill="none" height="117" rx="3.5" ry="3.5" style="stroke:#393939;stroke-width:1.0;" width="166" x="848.6497" y="55"/><text fill="#000000" font-family="sans-serif" font-size="14" font-weight="bold" lengthAdjust="spacing" textLength="150" x="856.6497" y="71.5332">Monitoring Container</text></g><!--cluster External Services--><g id="cluster_External Services"><path d="M238.0955,401.1874 C243.9816,391.1308 253.788,390.808 259.7607,401.0952 C267.6658,387.614 276.9925,387.3721 287.8133,397.653 C297.1862,384.8276 305.8235,386.4924 313.5403,399.3143 C318.9175,387.9135 327.661,387.2742 334.7741,397.6192 C340.8008,384.7549 352.5478,382.2297 360.6059,395.6206 C368.464,382.8348 379.4574,384.9559 385.278,397.5977 C392.6165,385.4322 402.4799,385.3109 409.8032,397.6129 C417.0493,386.1854 426.9645,383.9191 434.5137,397.3113 C442.5722,386.3951 452.3872,384.722 459.9928,397.7924 C469.3013,385.5225 476.9111,386.4084 485.4014,398.6408 C492.8142,383.8244 501.9577,385.9208 511.9201,395.9158 C521.6454,384.8313 532.1324,385.7463 538.453,399.546 C543.9026,389.4655 553.8032,387.9287 561.1912,397.2774 C573.8811,383.1823 584.5183,389.356 590.6497,404 C592.8076,403.6663 594.0996,404.1316 593.7953,406.6838 C614.0274,420.2776 615.1318,438.1717 593.6709,451.6501 C614.7544,470.8923 611.327,489.3002 583.6497,498 C586.022,496.8231 587.6395,497.6002 588.1795,500.1986 C578.9614,512.425 569.4605,513.3915 561.3844,499.047 C555.833,513.1757 547.3729,512.3028 537.8846,502.9946 C528.2491,515.3112 517.9366,512.9106 510.0891,500.9477 C504.847,512.0959 495.1064,514.6658 487.0682,503.8825 C478.1832,513.7017 469.1293,511.7317 462.665,501.007 C455.2099,512.7561 443.4682,513.4825 434.6068,502.7632 C427.338,513.1198 416.7007,512.7292 410.08,502.0091 C403.5443,512.1888 395.2623,512.4751 387.1986,503.8706 C379.3475,516.5774 365.6711,515.1497 359.5431,502.0259 C354.2857,513.023 344.4277,512.2884 337.6753,503.6946 C328.7865,515.9532 318.9786,515.0551 310.96,502.7483 C303.0219,511.4364 294.6595,510.3001 288.5714,500.5072 C281.0207,513.084 268.7328,511.3827 262.2711,499.3437 C249.5934,511.8332 233.0755,508.6015 227.6497,491 C230.2191,491.8025 230.2643,494.0698 228.3973,495.5943 C202.4588,482.1147 201.0583,464.6357 225.7171,448.2893 C205.0785,427.3331 209.8056,410.0349 234.6497,397 C237.7204,396.6691 239.2961,398.0034 238.0955,401.1874 " fill="none" style="stroke:#393939;stroke-width:1.0;"/><text fill="#000000" font-family="sans-serif" font-size="14" font-weight="bold" lengthAdjust="spacing" textLength="124" x="347.1497" y="416.5332">External Services</text></g><!--entity frontend--><g id="elem_frontend"><rect fill="#F1F1F1" height="47.6094" rx="3.5" ry="3.5" style="stroke:#181818;stroke-width:0.5;" width="110" x="249.6497" y="99.5"/><rect fill="#F1F1F1" height="10" style="stroke:#181818;stroke-width:0.5;" width="15" x="339.6497" y="104.5"/><rect fill="#F1F1F1" height="2" style="stroke:#181818;stroke-width:0.5;" width="4" x="337.6497" y="106.5"/><rect fill="#F1F1F1" height="2" style="stroke:#181818;stroke-width:0.5;" width="4" x="337.6497" y="110.5"/><text fill="#000000" font-family="sans-serif" font-size="14" lengthAdjust="spacing" textLength="70" x="264.6497" y="134.0332">Next.js App</text></g><!--entity rpc--><g id="elem_rpc"><rect fill="#F1F1F1" height="65.2188" rx="3.5" ry="3.5" style="stroke:#181818;stroke-width:0.5;" width="152" x="27.6497" y="425"/><rect fill="#F1F1F1" height="10" style="stroke:#181818;stroke-width:0.5;" width="15" x="159.6497" y="430"/><rect fill="#F1F1F1" height="2" style="stroke:#181818;stroke-width:0.5;" width="4" x="157.6497" y="432"/><rect fill="#F1F1F1" height="2" style="stroke:#181818;stroke-width:0.5;" width="4" x="157.6497" y="436"/><text fill="#000000" font-family="sans-serif" font-size="14" lengthAdjust="spacing" textLength="112" x="42.6497" y="459.5332">Ethereum/Sepolia</text><text fill="#000000" font-family="sans-serif" font-size="14" lengthAdjust="spacing" textLength="66" x="42.6497" y="477.1426">RPC Node</text></g><!--entity contracts--><g id="elem_contracts"><rect fill="#F1F1F1" height="65.2188" rx="3.5" ry="3.5" style="stroke:#181818;stroke-width:0.5;" width="142" x="32.6497" y="593.5"/><rect fill="#F1F1F1" height="10" style="stroke:#181818;stroke-width:0.5;" width="15" x="154.6497" y="598.5"/><rect fill="#F1F1F1" height="2" style="stroke:#181818;stroke-width:0.5;" width="4" x="152.6497" y="600.5"/><rect fill="#F1F1F1" height="2" style="stroke:#181818;stroke-width:0.5;" width="4" x="152.6497" y="604.5"/><text fill="#000000" font-family="sans-serif" font-size="14" lengthAdjust="spacing" textLength="102" x="47.6497" y="628.0332">Smart Contracts</text><text fill="#000000" font-family="sans-serif" font-size="14" lengthAdjust="spacing" textLength="85" x="47.6497" y="645.6426">Staking Logic</text></g><!--entity api--><g id="elem_api"><rect fill="#F1F1F1" height="65.2188" rx="3.5" ry="3.5" style="stroke:#181818;stroke-width:0.5;" width="99" x="882.1497" y="258"/><rect fill="#F1F1F1" height="10" style="stroke:#181818;stroke-width:0.5;" width="15" x="961.1497" y="263"/><rect fill="#F1F1F1" height="2" style="stroke:#181818;stroke-width:0.5;" width="4" x="959.1497" y="265"/><rect fill="#F1F1F1" height="2" style="stroke:#181818;stroke-width:0.5;" width="4" x="959.1497" y="269"/><text fill="#000000" font-family="sans-serif" font-size="14" lengthAdjust="spacing" textLength="59" x="897.1497" y="292.5332">Flask API</text><text fill="#000000" font-family="sans-serif" font-size="14" lengthAdjust="spacing" textLength="36" x="897.1497" y="310.1426">:5000</text></g><!--entity worker--><g id="elem_worker"><rect fill="#F1F1F1" height="65.2188" rx="3.5" ry="3.5" style="stroke:#181818;stroke-width:0.5;" width="149" x="663.1497" y="258"/><rect fill="#F1F1F1" height="10" style="stroke:#181818;stroke-width:0.5;" width="15" x="792.1497" y="263"/><rect fill="#F1F1F1" height="2" style="stroke:#181818;stroke-width:0.5;" width="4" x="790.1497" y="265"/><rect fill="#F1F1F1" height="2" style="stroke:#181818;stroke-width:0.5;" width="4" x="790.1497" y="269"/><text fill="#000000" font-family="sans-serif" font-size="14" lengthAdjust="spacing" textLength="91" x="678.1497" y="292.5332">Celery Worker</text><text fill="#000000" font-family="sans-serif" font-size="14" lengthAdjust="spacing" textLength="109" x="678.1497" y="310.1426">+ Beat Scheduler</text></g><!--entity redis--><g id="elem_redis"><path d="M765.6497,435.5 C765.6497,425.5 793.6497,425.5 793.6497,425.5 C793.6497,425.5 821.6497,425.5 821.6497,435.5 L821.6497,479.7188 C821.6497,489.7188 793.6497,489.7188 793.6497,489.7188 C793.6497,489.7188 765.6497,489.7188 765.6497,479.7188 L765.6497,435.5 " fill="#A4DBD8" style="stroke:#191919;stroke-width:0.5;"/><path d="M765.6497,435.5 C765.6497,445.5 793.6497,445.5 793.6497,445.5 C793.6497,445.5 821.6497,445.5 821.6497,435.5 " fill="none" style="stroke:#191919;stroke-width:0.5;"/><text fill="#191919" font-family="sans-serif" font-size="14" lengthAdjust="spacing" textLength="36" x="775.6497" y="464.0332">Redis</text><text fill="#191919" font-family="sans-serif" font-size="14" lengthAdjust="spacing" textLength="36" x="775.6497" y="481.6426">:6379</text></g><!--entity mongo--><g id="elem_mongo"><path d="M1011.6497,435.5 C1011.6497,425.5 1052.6497,425.5 1052.6497,425.5 C1052.6497,425.5 1093.6497,425.5 1093.6497,435.5 L1093.6497,479.7188 C1093.6497,489.7188 1052.6497,489.7188 1052.6497,489.7188 C1052.6497,489.7188 1011.6497,489.7188 1011.6497,479.7188 L1011.6497,435.5 " fill="#A4DBD8" style="stroke:#191919;stroke-width:0.5;"/><path d="M1011.6497,435.5 C1011.6497,445.5 1052.6497,445.5 1052.6497,445.5 C1052.6497,445.5 1093.6497,445.5 1093.6497,435.5 " fill="none" style="stroke:#191919;stroke-width:0.5;"/><text fill="#191919" font-family="sans-serif" font-size="14" lengthAdjust="spacing" textLength="62" x="1021.6497" y="464.0332">MongoDB</text><text fill="#191919" font-family="sans-serif" font-size="14" lengthAdjust="spacing" textLength="44" x="1021.6497" y="481.6426">:27017</text></g><!--entity monitor--><g id="elem_monitor"><rect fill="#F1F1F1" height="65.2188" rx="3.5" ry="3.5" style="stroke:#181818;stroke-width:0.5;" width="116" x="873.6497" y="91"/><rect fill="#F1F1F1" height="10" style="stroke:#181818;stroke-width:0.5;" width="15" x="969.6497" y="96"/><rect fill="#F1F1F1" height="2" style="stroke:#181818;stroke-width:0.5;" width="4" x="967.6497" y="98"/><rect fill="#F1F1F1" height="2" style="stroke:#181818;stroke-width:0.5;" width="4" x="967.6497" y="102"/><text fill="#000000" font-family="sans-serif" font-size="14" lengthAdjust="spacing" textLength="76" x="888.6497" y="125.5332">Prometheus</text><text fill="#000000" font-family="sans-serif" font-size="14" lengthAdjust="spacing" textLength="64" x="888.6497" y="143.1426">+ Grafana</text></g><!--entity oracle--><g id="elem_oracle"><rect fill="#F1F1F1" height="65.2188" rx="3.5" ry="3.5" style="stroke:#181818;stroke-width:0.5;" width="151" x="236.1497" y="425"/><rect fill="#F1F1F1" height="10" style="stroke:#181818;stroke-width:0.5;" width="15" x="367.1497" y="430"/><rect fill="#F1F1F1" height="2" style="stroke:#181818;stroke-width:0.5;" width="4" x="365.1497" y="432"/><rect fill="#F1F1F1" height="2" style="stroke:#181818;stroke-width:0.5;" width="4" x="365.1497" y="436"/><text fill="#000000" font-family="sans-serif" font-size="14" lengthAdjust="spacing" textLength="111" x="251.1497" y="459.5332">Chainlink Oracles</text><text fill="#000000" font-family="sans-serif" font-size="14" lengthAdjust="spacing" textLength="76" x="251.1497" y="477.1426">Price Feeds</text></g><!--entity notif--><g id="elem_notif"><rect fill="#F1F1F1" height="65.2188" rx="3.5" ry="3.5" style="stroke:#181818;stroke-width:0.5;" width="160" x="422.6497" y="425"/><rect fill="#F1F1F1" height="10" style="stroke:#181818;stroke-width:0.5;" width="15" x="562.6497" y="430"/><rect fill="#F1F1F1" height="2" style="stroke:#181818;stroke-width:0.5;" width="4" x="560.6497" y="432"/><rect fill="#F1F1F1" height="2" style="stroke:#181818;stroke-width:0.5;" width="4" x="560.6497" y="436"/><text fill="#000000" font-family="sans-serif" font-size="14" lengthAdjust="spacing" textLength="120" x="437.6497" y="459.5332">SendGrid/Firebase</text><text fill="#000000" font-family="sans-serif" font-size="14" lengthAdjust="spacing" textLength="76" x="437.6497" y="477.1426">Notifications</text></g><!--link frontend to api--><g id="link_frontend_api"><path d="M359.6997,136 C443.6897,153.22 609.0197,185.83 750.6497,206 C785.1497,210.91 796.1297,201.48 828.6497,214 C854.3097,223.87 874.6935,238.0313 893.6135,253.9913 " fill="none" id="frontend-to-api" style="stroke:#191919;stroke-width:1.0;"/><polygon fill="#191919" points="898.1997,257.86,893.8995,248.9995,894.3778,254.6361,888.7412,255.1144,898.1997,257.86" style="stroke:#191919;stroke-width:1.0;"/><text fill="#000000" font-family="sans-serif" font-size="13" lengthAdjust="spacing" textLength="79" x="751.6497" y="202.4951">HTTPS/REST</text></g><!--link frontend to rpc--><g id="link_frontend_rpc"><path d="M290.6797,147.58 C255.4697,205.74 166.1571,353.2474 125.9271,419.6974 " fill="none" id="frontend-to-rpc" style="stroke:#191919;stroke-width:1.0;"/><polygon fill="#191919" points="122.8197,424.83,130.9025,419.2026,125.4092,420.5528,124.059,415.0594,122.8197,424.83" style="stroke:#191919;stroke-width:1.0;"/><text fill="#000000" font-family="sans-serif" font-size="13" lengthAdjust="spacing" textLength="65" x="249.6497" y="295.9951">Web3 RPC</text></g><!--link api to redis--><g id="link_api_redis"><path d="M920.2397,323.06 C913.6097,338.96 904.2597,357.99 892.6497,373 C872.5697,398.97 848.0705,418.9904 826.5305,434.3904 " fill="none" id="api-to-redis" style="stroke:#191919;stroke-width:1.0;"/><polygon fill="#191919" points="821.6497,437.88,831.2974,435.8996,825.7171,434.972,826.6446,429.3917,821.6497,437.88" style="stroke:#191919;stroke-width:1.0;"/><text fill="#000000" font-family="sans-serif" font-size="13" lengthAdjust="spacing" textLength="79" x="903.6497" y="369.4951">Cache/Queue</text></g><!--link api to mongo--><g id="link_api_mongo"><path d="M981.1597,322.87 C992.9797,332.12 1004.7297,343.01 1013.6497,355 C1029.3097,376.06 1037.8303,398.3955 1043.8403,419.6955 " fill="none" id="api-to-mongo" style="stroke:#191919;stroke-width:1.0;"/><polygon fill="#191919" points="1045.4697,425.47,1046.8754,415.722,1044.1119,420.6579,1039.176,417.8944,1045.4697,425.47" style="stroke:#191919;stroke-width:1.0;"/><text fill="#000000" font-family="sans-serif" font-size="13" lengthAdjust="spacing" textLength="76" x="1025.6497" y="369.4951">Data Storage</text></g><!--link worker to redis--><g id="link_worker_redis"><path d="M688.3497,323.03 C672.4597,337.33 661.1297,355.03 670.6497,373 C690.5897,410.63 730.3674,432.1657 760.0774,444.3357 " fill="none" id="worker-to-redis" style="stroke:#191919;stroke-width:1.0;"/><polygon fill="#191919" points="765.6297,446.61,758.8175,439.497,761.0028,444.7147,755.7851,446.9,765.6297,446.61" style="stroke:#191919;stroke-width:1.0;"/><text fill="#000000" font-family="sans-serif" font-size="13" lengthAdjust="spacing" textLength="86" x="671.6497" y="369.4951">Consume Jobs</text></g><!--link worker to mongo--><g id="link_worker_mongo"><path d="M752.2097,323.27 C761.8197,340.66 776.0697,361.03 794.6497,373 C810.9897,383.53 818.8697,375.99 837.6497,381 C899.3797,397.48 963.2022,421.0236 1006.0322,437.7836 " fill="none" id="worker-to-mongo" style="stroke:#191919;stroke-width:1.0;"/><polygon fill="#191919" points="1011.6197,439.97,1004.6961,432.9654,1006.9635,438.148,1001.7809,440.4153,1011.6197,439.97" style="stroke:#191919;stroke-width:1.0;"/><text fill="#000000" font-family="sans-serif" font-size="13" lengthAdjust="spacing" textLength="88" x="795.6497" y="369.4951">Update Metrics</text></g><!--link worker to rpc--><g id="link_worker_rpc"><path d="M663.0897,293.91 C559.7297,299.54 368.7797,318.33 219.6497,381 C192.9597,392.22 170.5733,406.1143 149.1933,421.3743 " fill="none" id="worker-to-rpc" style="stroke:#191919;stroke-width:1.0;"/><polygon fill="#191919" points="144.3097,424.86,153.9589,422.8872,148.3794,421.9552,149.3113,416.3757,144.3097,424.86" style="stroke:#191919;stroke-width:1.0;"/><text fill="#000000" font-family="sans-serif" font-size="13" lengthAdjust="spacing" textLength="75" x="286.6497" y="369.4951">Read Stakes</text></g><!--link worker to oracle--><g id="link_worker_oracle"><path d="M663.0497,302.1 C593.4497,314.14 488.2297,337.96 405.6497,381 C383.5597,392.51 366.204,405.6763 349.124,420.7063 " fill="none" id="worker-to-oracle" style="stroke:#191919;stroke-width:1.0;"/><polygon fill="#191919" points="344.6197,424.67,354.0186,421.7273,348.3733,421.3669,348.7337,415.7215,344.6197,424.67" style="stroke:#191919;stroke-width:1.0;"/><text fill="#000000" font-family="sans-serif" font-size="13" lengthAdjust="spacing" textLength="64" x="456.6497" y="369.4951">Fetch Data</text></g><!--link worker to notif--><g id="link_worker_notif"><path d="M662.7797,315.52 C637.8597,325.51 610.8297,338.65 588.6497,355 C562.6297,374.19 542.8387,397.8759 527.0887,419.8159 " fill="none" id="worker-to-notif" style="stroke:#191919;stroke-width:1.0;"/><polygon fill="#191919" points="523.5897,424.69,532.0876,419.7115,526.5055,420.6282,525.5887,415.0462,523.5897,424.69" style="stroke:#191919;stroke-width:1.0;"/><text fill="#000000" font-family="sans-serif" font-size="13" lengthAdjust="spacing" textLength="68" x="589.6497" y="369.4951">Send Alerts</text></g><!--link monitor to api--><g id="link_monitor_api"><path d="M931.6497,156.31 C931.6497,185.53 931.6497,222.6 931.6497,251.78 " fill="none" id="monitor-to-api" style="stroke:#191919;stroke-width:1.0;stroke-dasharray:7.0,7.0;"/><polygon fill="#191919" points="931.6497,257.78,935.6497,248.78,931.6497,252.78,927.6497,248.78,931.6497,257.78" style="stroke:#191919;stroke-width:1.0;"/><text fill="#000000" font-family="sans-serif" font-size="13" lengthAdjust="spacing" textLength="92" x="932.6497" y="202.4951">Scrape /metrics</text></g><!--link monitor to worker--><g id="link_monitor_worker"><path d="M894.2397,156.31 C859.8897,185.53 813.8308,224.7135 779.5108,253.8935 " fill="none" id="monitor-to-worker" style="stroke:#191919;stroke-width:1.0;stroke-dasharray:7.0,7.0;"/><polygon fill="#191919" points="774.9397,257.78,784.3873,254.9976,778.7489,254.5412,779.2053,248.9028,774.9397,257.78" style="stroke:#191919;stroke-width:1.0;"/><text fill="#000000" font-family="sans-serif" font-size="13" lengthAdjust="spacing" textLength="28" x="852.6497" y="202.4951">Logs</text></g><!--link monitor to mongo--><g id="link_monitor_mongo"><path d="M989.8197,152.7 C1005.4797,162.3 1021.4397,174.16 1033.6497,188 C1087.7297,249.28 1093.1297,275.17 1110.6497,355 C1116.2597,380.57 1105.3506,401.5573 1089.3106,420.6373 " fill="none" id="monitor-to-mongo" style="stroke:#191919;stroke-width:1.0;stroke-dasharray:7.0,7.0;"/><polygon fill="#191919" points="1085.4497,425.23,1094.3029,420.9149,1088.6671,421.4027,1088.1793,415.767,1085.4497,425.23" style="stroke:#191919;stroke-width:1.0;"/><text fill="#000000" font-family="sans-serif" font-size="13" lengthAdjust="spacing" textLength="78" x="1108.6497" y="295.9951">Health Check</text></g><!--link rpc to contracts--><g id="link_rpc_contracts"><path d="M103.6497,490.21 C103.6497,519.84 103.6497,557.82 103.6497,587.41 " fill="none" id="rpc-to-contracts" style="stroke:#191919;stroke-width:1.0;"/><polygon fill="#191919" points="103.6497,593.41,107.6497,584.41,103.6497,588.41,99.6497,584.41,103.6497,593.41" style="stroke:#191919;stroke-width:1.0;"/><text fill="#000000" font-family="sans-serif" font-size="13" lengthAdjust="spacing" textLength="74" x="104.6497" y="559.9951">Transactions</text></g><!--SRC=[XLF1Zjem4BtdAwPSUgWMQ5SjAeTA461frQMKKEsXx65m1d2Js97j5Afg_xrZXx0WeIs72FczUMyyy_pAxQWWAD3OA58w9MZ5kIJbO6Zqtf9fmTy8-FTpHWVN_cLXK9QFW1OsHYj7AesUeaZakagXDSoroCGEfO8PkRqssQbwp3w6ggAJKAbpYIkrcCSmOyCWPafHynBkn47CqWQ5iokLECoasi9NlPKYS4K3UkUwvH7xae6fjgvn31z3mg7QvamPp3y7MMxk-LB1SfAZpO3nbUg_xtQxmGHB6HXFLyKU-6hiTrqlffpC7wWvA_K6XeGE4h6Zj68aoEy3-893ZCo_Rf2YmpLQ9YqebJoY_eVRtiTM6AC_U45rr9J-H_XUgwqU3LdwNQ_xjXUq2t_sWZRNIAUDtzNrkSoDBeXZK5a_b3k36rJuU9JsfKVnvpoD3uwCmXmICh-b87kAK-n3bakLmJUEGauiEJVCW0bHQeEe3i0nLPpJEoFJpaGQybTSgPbsSYC5EgbLNQ3yYNT_xI-WwE2Hg8avtDnyygc0FaoNotdIMOoJvINA8MRqWTQtmE6EF3aS-wKm45RQ-LvHHISi39KnlnX8U0QufQWEnsKjjrBnE_sYr_OSR-f_bBmyWdjoF8KBHjtKWZ05_vJe0gndnFY4dDY5BixXC156_VXWmDdbDtVS5RJRpJWIOR0aw1H7ytF6KQpld-ybqdG-9SpT3k8TYIpopNhZqnDdmjAWilm_RECV]--></g></svg>