<?xml version="1.0" encoding="us-ascii" standalone="no"?><svg xmlns="http://www.w3.org/2000/svg" xmlns:xlink="http://www.w3.org/1999/xlink" contentStyleType="text/css" height="2411px" preserveAspectRatio="none" style="width:1354px;height:2411px;background:#F9F9F9;" version="1.1" viewBox="0 0 1354 2411" width="1354px" zoomAndPan="magnify"><defs/><g><rect fill="#F9F9F9" height="2411" style="stroke:none;stroke-width:1.0;" width="1354" x="0" y="0"/><rect fill="none" height="145.7578" rx="3.5" ry="3.5" style="stroke:#393939;stroke-width:1.0;" width="561.5" x="140.5" y="217.6641"/><line style="stroke:#393939;stroke-width:0.5;stroke-dasharray:5.0,5.0;" x1="22" x2="22" y1="82.6094" y2="2328.9766"/><line style="stroke:#393939;stroke-width:0.5;stroke-dasharray:5.0,5.0;" x1="212.5" x2="212.5" y1="82.6094" y2="2328.9766"/><line style="stroke:#393939;stroke-width:0.5;stroke-dasharray:5.0,5.0;" x1="450.5" x2="450.5" y1="82.6094" y2="2328.9766"/><line style="stroke:#393939;stroke-width:0.5;stroke-dasharray:5.0,5.0;" x1="637" x2="637" y1="82.6094" y2="2328.9766"/><line style="stroke:#393939;stroke-width:0.5;stroke-dasharray:5.0,5.0;" x1="812" x2="812" y1="82.6094" y2="2328.9766"/><line style="stroke:#393939;stroke-width:0.5;stroke-dasharray:5.0,5.0;" x1="1005" x2="1005" y1="82.6094" y2="2328.9766"/><line style="stroke:#393939;stroke-width:0.5;stroke-dasharray:5.0,5.0;" x1="1104" x2="1104" y1="82.6094" y2="2328.9766"/><line style="stroke:#393939;stroke-width:0.5;stroke-dasharray:5.0,5.0;" x1="1275.5" x2="1275.5" y1="82.6094" y2="2328.9766"/><text fill="#191919" font-family="sans-serif" font-size="14" lengthAdjust="spacing" textLength="29" x="5" y="79.5332">User</text><ellipse cx="22.5" cy="13.5" fill="#191919" rx="8" ry="8" style="stroke:#191919;stroke-width:0.5;"/><path d="M22.5,21.5 L22.5,48.5 M9.5,29.5 L35.5,29.5 M22.5,48.5 L9.5,63.5 M22.5,48.5 L35.5,63.5 " fill="none" style="stroke:#191919;stroke-width:0.5;"/><text fill="#191919" font-family="sans-serif" font-size="14" lengthAdjust="spacing" textLength="29" x="5" y="2342.5098">User</text><ellipse cx="22.5" cy="2354.0859" fill="#191919" rx="8" ry="8" style="stroke:#191919;stroke-width:0.5;"/><path d="M22.5,2362.0859 L22.5,2389.0859 M9.5,2370.0859 L35.5,2370.0859 M22.5,2389.0859 L9.5,2404.0859 M22.5,2389.0859 L35.5,2404.0859 " fill="none" style="stroke:#191919;stroke-width:0.5;"/><rect fill="#E55756" height="49.2188" rx="3.5" ry="3.5" style="stroke:#191919;stroke-width:1.5;" width="124" x="150.5" y="32.3906"/><text fill="#F9F9F9" font-family="sans-serif" font-size="14" lengthAdjust="spacing" textLength="58" x="183.5" y="53.9238">Frontend</text><text fill="#F9F9F9" font-family="sans-serif" font-size="14" lengthAdjust="spacing" textLength="110" x="157.5" y="71.5332">(Next.js + Wagmi)</text><rect fill="#E55756" height="49.2188" rx="3.5" ry="3.5" style="stroke:#191919;stroke-width:1.5;" width="124" x="150.5" y="2327.9766"/><text fill="#F9F9F9" font-family="sans-serif" font-size="14" lengthAdjust="spacing" textLength="58" x="183.5" y="2349.5098">Frontend</text><text fill="#F9F9F9" font-family="sans-serif" font-size="14" lengthAdjust="spacing" textLength="110" x="157.5" y="2367.1191">(Next.js + Wagmi)</text><rect fill="#E55756" height="49.2188" rx="3.5" ry="3.5" style="stroke:#191919;stroke-width:1.5;" width="88" x="406.5" y="32.3906"/><text fill="#F9F9F9" font-family="sans-serif" font-size="14" lengthAdjust="spacing" textLength="39" x="431" y="53.9238">Wallet</text><text fill="#F9F9F9" font-family="sans-serif" font-size="14" lengthAdjust="spacing" textLength="74" x="413.5" y="71.5332">(MetaMask)</text><rect fill="#E55756" height="49.2188" rx="3.5" ry="3.5" style="stroke:#191919;stroke-width:1.5;" width="88" x="406.5" y="2327.9766"/><text fill="#F9F9F9" font-family="sans-serif" font-size="14" lengthAdjust="spacing" textLength="39" x="431" y="2349.5098">Wallet</text><text fill="#F9F9F9" font-family="sans-serif" font-size="14" lengthAdjust="spacing" textLength="74" x="413.5" y="2367.1191">(MetaMask)</text><rect fill="#E55756" height="49.2188" rx="3.5" ry="3.5" style="stroke:#191919;stroke-width:1.5;" width="109" x="583" y="32.3906"/><text fill="#F9F9F9" font-family="sans-serif" font-size="14" lengthAdjust="spacing" textLength="95" x="590" y="53.9238">Smart Contract</text><text fill="#F9F9F9" font-family="sans-serif" font-size="14" lengthAdjust="spacing" textLength="85" x="595" y="71.5332">(StakingPool)</text><rect fill="#E55756" height="49.2188" rx="3.5" ry="3.5" style="stroke:#191919;stroke-width:1.5;" width="109" x="583" y="2327.9766"/><text fill="#F9F9F9" font-family="sans-serif" font-size="14" lengthAdjust="spacing" textLength="95" x="590" y="2349.5098">Smart Contract</text><text fill="#F9F9F9" font-family="sans-serif" font-size="14" lengthAdjust="spacing" textLength="85" x="595" y="2367.1191">(StakingPool)</text><rect fill="#E55756" height="49.2188" rx="3.5" ry="3.5" style="stroke:#191919;stroke-width:1.5;" width="137" x="744" y="32.3906"/><text fill="#F9F9F9" font-family="sans-serif" font-size="14" lengthAdjust="spacing" textLength="123" x="751" y="53.9238">Blockchain Listener</text><text fill="#F9F9F9" font-family="sans-serif" font-size="14" lengthAdjust="spacing" textLength="54" x="785.5" y="71.5332">(Python)</text><rect fill="#E55756" height="49.2188" rx="3.5" ry="3.5" style="stroke:#191919;stroke-width:1.5;" width="137" x="744" y="2327.9766"/><text fill="#F9F9F9" font-family="sans-serif" font-size="14" lengthAdjust="spacing" textLength="123" x="751" y="2349.5098">Blockchain Listener</text><text fill="#F9F9F9" font-family="sans-serif" font-size="14" lengthAdjust="spacing" textLength="54" x="785.5" y="2367.1191">(Python)</text><rect fill="#E55756" height="31.6094" rx="3.5" ry="3.5" style="stroke:#191919;stroke-width:1.5;" width="73" x="969" y="50"/><text fill="#F9F9F9" font-family="sans-serif" font-size="14" lengthAdjust="spacing" textLength="59" x="976" y="71.5332">Flask API</text><rect fill="#E55756" height="31.6094" rx="3.5" ry="3.5" style="stroke:#191919;stroke-width:1.5;" width="73" x="969" y="2327.9766"/><text fill="#F9F9F9" font-family="sans-serif" font-size="14" lengthAdjust="spacing" textLength="59" x="976" y="2349.5098">Flask API</text><rect fill="#E55756" height="49.2188" rx="3.5" ry="3.5" style="stroke:#191919;stroke-width:1.5;" width="105" x="1052" y="32.3906"/><text fill="#F9F9F9" font-family="sans-serif" font-size="14" lengthAdjust="spacing" textLength="91" x="1059" y="53.9238">Celery Worker</text><text fill="#F9F9F9" font-family="sans-serif" font-size="14" lengthAdjust="spacing" textLength="63" x="1073" y="71.5332">(Optional)</text><rect fill="#E55756" height="49.2188" rx="3.5" ry="3.5" style="stroke:#191919;stroke-width:1.5;" width="105" x="1052" y="2327.9766"/><text fill="#F9F9F9" font-family="sans-serif" font-size="14" lengthAdjust="spacing" textLength="91" x="1059" y="2349.5098">Celery Worker</text><text fill="#F9F9F9" font-family="sans-serif" font-size="14" lengthAdjust="spacing" textLength="63" x="1073" y="2367.1191">(Optional)</text><text fill="#191919" font-family="sans-serif" font-size="14" lengthAdjust="spacing" textLength="62" x="1241.5" y="79.5332">MongoDB</text><path d="M1257.5,29 C1257.5,19 1275.5,19 1275.5,19 C1275.5,19 1293.5,19 1293.5,29 L1293.5,55 C1293.5,65 1275.5,65 1275.5,65 C1275.5,65 1257.5,65 1257.5,55 L1257.5,29 " fill="#A4DBD8" style="stroke:#191919;stroke-width:1.5;"/><path d="M1257.5,29 C1257.5,39 1275.5,39 1275.5,39 C1275.5,39 1293.5,39 1293.5,29 " fill="none" style="stroke:#191919;stroke-width:1.5;"/><text fill="#191919" font-family="sans-serif" font-size="14" lengthAdjust="spacing" textLength="62" x="1241.5" y="2342.5098">MongoDB</text><path d="M1257.5,2355.5859 C1257.5,2345.5859 1275.5,2345.5859 1275.5,2345.5859 C1275.5,2345.5859 1293.5,2345.5859 1293.5,2355.5859 L1293.5,2381.5859 C1293.5,2391.5859 1275.5,2391.5859 1275.5,2391.5859 C1275.5,2391.5859 1257.5,2391.5859 1257.5,2381.5859 L1257.5,2355.5859 " fill="#A4DBD8" style="stroke:#191919;stroke-width:1.5;"/><path d="M1257.5,2355.5859 C1257.5,2365.5859 1275.5,2365.5859 1275.5,2365.5859 C1275.5,2365.5859 1293.5,2365.5859 1293.5,2355.5859 " fill="none" style="stroke:#191919;stroke-width:1.5;"/><rect fill="#EEEEEE" height="3" rx="3.5" ry="3.5" style="stroke:#EEEEEE;stroke-width:1.0;" width="1347" x="0" y="113.7852"/><line style="stroke:#191919;stroke-width:0.5;" x1="0" x2="1347" y1="113.7852" y2="113.7852"/><line style="stroke:#191919;stroke-width:0.5;" x1="0" x2="1347" y1="116.7852" y2="116.7852"/><rect fill="#EEEEEE" height="24.3516" rx="3.5" ry="3.5" style="stroke:#191919;stroke-width:1.0;" width="303" x="522" y="102.6094"/><text fill="#191919" font-family="sans-serif" font-size="13" font-weight="bold" lengthAdjust="spacing" textLength="285" x="528" y="120.1045">Phase 1: Stake Creation (with Auto-Approval)</text><polygon fill="#191919" points="200.5,155.3125,210.5,159.3125,200.5,163.3125,204.5,159.3125" style="stroke:#191919;stroke-width:1.0;"/><line style="stroke:#191919;stroke-width:1.0;" x1="22.5" x2="206.5" y1="159.3125" y2="159.3125"/><text fill="#000000" font-family="sans-serif" font-size="13" lengthAdjust="spacing" textLength="166" x="29.5" y="154.4561">Enter 1000 DAI + Select Tier</text><line style="stroke:#191919;stroke-width:1.0;" x1="212.5" x2="254.5" y1="189.6641" y2="189.6641"/><line style="stroke:#191919;stroke-width:1.0;" x1="254.5" x2="254.5" y1="189.6641" y2="202.6641"/><line style="stroke:#191919;stroke-width:1.0;" x1="213.5" x2="254.5" y1="202.6641" y2="202.6641"/><polygon fill="#191919" points="223.5,198.6641,213.5,202.6641,223.5,206.6641,219.5,202.6641" style="stroke:#191919;stroke-width:1.0;"/><text fill="#000000" font-family="sans-serif" font-size="13" lengthAdjust="spacing" textLength="123" x="219.5" y="184.8076">Check DAI allowance</text><path d="M144,217.6641 L201.5,217.6641 L201.5,226.0156 L191.5,236.0156 L140.5,236.0156 L140.5,221.1641 A3.5,3.5 0 0 1 144,217.6641 " fill="#EEEEEE" style="stroke:#393939;stroke-width:1.5;"/><rect fill="none" height="145.7578" rx="3.5" ry="3.5" style="stroke:#393939;stroke-width:1.0;" width="561.5" x="140.5" y="217.6641"/><text fill="#191919" font-family="sans-serif" font-size="13" font-weight="bold" lengthAdjust="spacing" textLength="16" x="155.5" y="232.1592">alt</text><text fill="#393939" font-family="sans-serif" font-size="11" font-weight="bold" lengthAdjust="spacing" textLength="122" x="216.5" y="231.083">[Allowance &lt; 1000 DAI]</text><polygon fill="#191919" points="438.5,257.3672,448.5,261.3672,438.5,265.3672,442.5,261.3672" style="stroke:#191919;stroke-width:1.0;"/><line style="stroke:#191919;stroke-width:1.0;" x1="212.5" x2="444.5" y1="261.3672" y2="261.3672"/><text fill="#000000" font-family="sans-serif" font-size="13" lengthAdjust="spacing" textLength="183" x="219.5" y="256.5107">approve(StakingPool, 5000 DAI)</text><path d="M455,244.5156 L455,263.5156 A3.5,3.5 0 0 0 458.5,267.0156 L618.5,267.0156 A3.5,3.5 0 0 0 622,263.5156 L622,251.0156 L612,241.0156 L458.5,241.0156 A3.5,3.5 0 0 0 455,244.5156 " fill="#E5E5E5" style="stroke:#191919;stroke-width:1.5;"/><path d="M612,241.0156 L612,249.2656 A1.75,1.75 0 0 0 613.75,251.0156 L622,251.0156 L612,241.0156 " fill="#E5E5E5" style="stroke:#191919;stroke-width:1.5;"/><text fill="#191919" font-family="sans-serif" font-size="13" lengthAdjust="spacing" textLength="146" x="461" y="259.5107">5x buffer for future stakes</text><polygon fill="#191919" points="625.5,290.7188,635.5,294.7188,625.5,298.7188,629.5,294.7188" style="stroke:#191919;stroke-width:1.0;"/><line style="stroke:#191919;stroke-width:1.0;" x1="450.5" x2="631.5" y1="294.7188" y2="294.7188"/><text fill="#000000" font-family="sans-serif" font-size="13" lengthAdjust="spacing" textLength="77" x="457.5" y="289.8623">DAI.approve()</text><polygon fill="#191919" points="461.5,321.0703,451.5,325.0703,461.5,329.0703,457.5,325.0703" style="stroke:#191919;stroke-width:1.0;"/><line style="stroke:#191919;stroke-width:1.0;stroke-dasharray:2.0,2.0;" x1="455.5" x2="636.5" y1="325.0703" y2="325.0703"/><text fill="#000000" font-family="sans-serif" font-size="13" lengthAdjust="spacing" textLength="109" x="467.5" y="320.2139">Approval confirmed</text><polygon fill="#191919" points="223.5,351.4219,213.5,355.4219,223.5,359.4219,219.5,355.4219" style="stroke:#191919;stroke-width:1.0;"/><line style="stroke:#191919;stroke-width:1.0;stroke-dasharray:2.0,2.0;" x1="217.5" x2="449.5" y1="355.4219" y2="355.4219"/><text fill="#000000" font-family="sans-serif" font-size="13" lengthAdjust="spacing" textLength="118" x="229.5" y="350.5654">onApproveConfirmed</text><polygon fill="#191919" points="438.5,388.7734,448.5,392.7734,438.5,396.7734,442.5,392.7734" style="stroke:#191919;stroke-width:1.0;"/><line style="stroke:#191919;stroke-width:1.0;" x1="212.5" x2="444.5" y1="392.7734" y2="392.7734"/><text fill="#000000" font-family="sans-serif" font-size="13" lengthAdjust="spacing" textLength="129" x="219.5" y="387.917">stake(1000 DAI, tierId)</text><polygon fill="#191919" points="625.5,419.125,635.5,423.125,625.5,427.125,629.5,423.125" style="stroke:#191919;stroke-width:1.0;"/><line style="stroke:#191919;stroke-width:1.0;" x1="450.5" x2="631.5" y1="423.125" y2="423.125"/><text fill="#000000" font-family="sans-serif" font-size="13" lengthAdjust="spacing" textLength="114" x="457.5" y="418.2686">StakingPool.stake()</text><line style="stroke:#191919;stroke-width:1.0;" x1="637.5" x2="679.5" y1="469.8281" y2="469.8281"/><line style="stroke:#191919;stroke-width:1.0;" x1="679.5" x2="679.5" y1="469.8281" y2="482.8281"/><line style="stroke:#191919;stroke-width:1.0;" x1="638.5" x2="679.5" y1="482.8281" y2="482.8281"/><polygon fill="#191919" points="648.5,478.8281,638.5,482.8281,648.5,486.8281,644.5,482.8281" style="stroke:#191919;stroke-width:1.0;"/><text fill="#000000" font-family="sans-serif" font-size="13" lengthAdjust="spacing" textLength="102" x="644.5" y="448.6201">transferFrom(DAI)</text><text fill="#000000" font-family="sans-serif" font-size="13" lengthAdjust="spacing" textLength="114" x="644.5" y="464.9717">Create stake record</text><polygon fill="#191919" points="461.5,509.1797,451.5,513.1797,461.5,517.1797,457.5,513.1797" style="stroke:#191919;stroke-width:1.0;"/><line style="stroke:#191919;stroke-width:1.0;stroke-dasharray:2.0,2.0;" x1="455.5" x2="636.5" y1="513.1797" y2="513.1797"/><text fill="#000000" font-family="sans-serif" font-size="13" lengthAdjust="spacing" textLength="119" x="467.5" y="508.3232">Event: StakeCreated</text><polygon fill="#191919" points="223.5,539.5313,213.5,543.5313,223.5,547.5313,219.5,543.5313" style="stroke:#191919;stroke-width:1.0;"/><line style="stroke:#191919;stroke-width:1.0;stroke-dasharray:2.0,2.0;" x1="217.5" x2="449.5" y1="543.5313" y2="543.5313"/><text fill="#000000" font-family="sans-serif" font-size="13" lengthAdjust="spacing" textLength="127" x="229.5" y="538.6748">Transaction confirmed</text><rect fill="#EEEEEE" height="3" rx="3.5" ry="3.5" style="stroke:#EEEEEE;stroke-width:1.0;" width="1347" x="0" y="572.707"/><line style="stroke:#191919;stroke-width:0.5;" x1="0" x2="1347" y1="572.707" y2="572.707"/><line style="stroke:#191919;stroke-width:0.5;" x1="0" x2="1347" y1="575.707" y2="575.707"/><rect fill="#EEEEEE" height="24.3516" rx="3.5" ry="3.5" style="stroke:#191919;stroke-width:1.0;" width="297" x="525" y="561.5313"/><text fill="#191919" font-family="sans-serif" font-size="13" font-weight="bold" lengthAdjust="spacing" textLength="279" x="531" y="579.0264">Phase 2: Event Processing (Polling every 2s)</text><polygon fill="#191919" points="648.5,630.5859,638.5,634.5859,648.5,638.5859,644.5,634.5859" style="stroke:#191919;stroke-width:1.0;"/><line style="stroke:#191919;stroke-width:1.0;" x1="642.5" x2="811.5" y1="634.5859" y2="634.5859"/><text fill="#000000" font-family="sans-serif" font-size="13" lengthAdjust="spacing" textLength="108" x="654.5" y="613.3779">Poll for new events</text><text fill="#000000" font-family="sans-serif" font-size="13" lengthAdjust="spacing" textLength="129" x="654.5" y="629.7295">(fromBlock &#8594; toBlock)</text><polygon fill="#191919" points="800.5,660.9375,810.5,664.9375,800.5,668.9375,804.5,664.9375" style="stroke:#191919;stroke-width:1.0;"/><line style="stroke:#191919;stroke-width:1.0;stroke-dasharray:2.0,2.0;" x1="637.5" x2="806.5" y1="664.9375" y2="664.9375"/><text fill="#000000" font-family="sans-serif" font-size="13" lengthAdjust="spacing" textLength="113" x="644.5" y="660.0811">StakeCreated event</text><line style="stroke:#191919;stroke-width:1.0;" x1="812.5" x2="854.5" y1="695.2891" y2="695.2891"/><line style="stroke:#191919;stroke-width:1.0;" x1="854.5" x2="854.5" y1="695.2891" y2="708.2891"/><line style="stroke:#191919;stroke-width:1.0;" x1="813.5" x2="854.5" y1="708.2891" y2="708.2891"/><polygon fill="#191919" points="823.5,704.2891,813.5,708.2891,823.5,712.2891,819.5,708.2891" style="stroke:#191919;stroke-width:1.0;"/><text fill="#000000" font-family="sans-serif" font-size="13" lengthAdjust="spacing" textLength="179" x="819.5" y="690.4326">convert_uint256_for_mongodb()</text><polygon fill="#191919" points="1263.5,750.9922,1273.5,754.9922,1263.5,758.9922,1267.5,754.9922" style="stroke:#191919;stroke-width:1.0;"/><line style="stroke:#191919;stroke-width:1.0;" x1="812.5" x2="1269.5" y1="754.9922" y2="754.9922"/><text fill="#000000" font-family="sans-serif" font-size="13" lengthAdjust="spacing" textLength="111" x="819.5" y="733.7842">stakes.insert_one()</text><text fill="#000000" font-family="sans-serif" font-size="13" lengthAdjust="spacing" textLength="135" x="819.5" y="750.1357">users.update_one($inc)</text><polygon fill="#191919" points="1263.5,781.3438,1273.5,785.3438,1263.5,789.3438,1267.5,785.3438" style="stroke:#191919;stroke-width:1.0;"/><line style="stroke:#191919;stroke-width:1.0;" x1="812.5" x2="1269.5" y1="785.3438" y2="785.3438"/><text fill="#000000" font-family="sans-serif" font-size="13" lengthAdjust="spacing" textLength="136" x="819.5" y="780.4873">raw_events.insert_one()</text><rect fill="#EEEEEE" height="3" rx="3.5" ry="3.5" style="stroke:#EEEEEE;stroke-width:1.0;" width="1347" x="0" y="814.5195"/><line style="stroke:#191919;stroke-width:0.5;" x1="0" x2="1347" y1="814.5195" y2="814.5195"/><line style="stroke:#191919;stroke-width:0.5;" x1="0" x2="1347" y1="817.5195" y2="817.5195"/><rect fill="#EEEEEE" height="24.3516" rx="3.5" ry="3.5" style="stroke:#191919;stroke-width:1.0;" width="218" x="564.5" y="803.3438"/><text fill="#191919" font-family="sans-serif" font-size="13" font-weight="bold" lengthAdjust="spacing" textLength="200" x="570.5" y="820.8389">Phase 3: Frontend Data Refresh</text><polygon fill="#191919" points="993.5,872.3984,1003.5,876.3984,993.5,880.3984,997.5,876.3984" style="stroke:#191919;stroke-width:1.0;"/><line style="stroke:#191919;stroke-width:1.0;" x1="212.5" x2="999.5" y1="876.3984" y2="876.3984"/><text fill="#000000" font-family="sans-serif" font-size="13" lengthAdjust="spacing" textLength="188" x="219.5" y="855.1904">GET /api/users/{address}/stakes</text><text fill="#000000" font-family="sans-serif" font-size="13" lengthAdjust="spacing" textLength="99" x="219.5" y="871.542">(refetch every 3s)</text><polygon fill="#191919" points="1263.5,902.75,1273.5,906.75,1263.5,910.75,1267.5,906.75" style="stroke:#191919;stroke-width:1.0;"/><line style="stroke:#191919;stroke-width:1.0;" x1="1005.5" x2="1269.5" y1="906.75" y2="906.75"/><text fill="#000000" font-family="sans-serif" font-size="13" lengthAdjust="spacing" textLength="246" x="1012.5" y="901.8936">stakes.find({user_address, status: 'active'})</text><polygon fill="#191919" points="1016.5,933.1016,1006.5,937.1016,1016.5,941.1016,1012.5,937.1016" style="stroke:#191919;stroke-width:1.0;"/><line style="stroke:#191919;stroke-width:1.0;stroke-dasharray:2.0,2.0;" x1="1010.5" x2="1274.5" y1="937.1016" y2="937.1016"/><text fill="#000000" font-family="sans-serif" font-size="13" lengthAdjust="spacing" textLength="99" x="1022.5" y="932.2451">Active stakes list</text><polygon fill="#191919" points="223.5,963.4531,213.5,967.4531,223.5,971.4531,219.5,967.4531" style="stroke:#191919;stroke-width:1.0;"/><line style="stroke:#191919;stroke-width:1.0;stroke-dasharray:2.0,2.0;" x1="217.5" x2="1004.5" y1="967.4531" y2="967.4531"/><text fill="#000000" font-family="sans-serif" font-size="13" lengthAdjust="spacing" textLength="91" x="229.5" y="962.5967">JSON response</text><line style="stroke:#191919;stroke-width:1.0;" x1="212.5" x2="254.5" y1="997.8047" y2="997.8047"/><line style="stroke:#191919;stroke-width:1.0;" x1="254.5" x2="254.5" y1="997.8047" y2="1010.8047"/><line style="stroke:#191919;stroke-width:1.0;" x1="213.5" x2="254.5" y1="1010.8047" y2="1010.8047"/><polygon fill="#191919" points="223.5,1006.8047,213.5,1010.8047,223.5,1014.8047,219.5,1010.8047" style="stroke:#191919;stroke-width:1.0;"/><text fill="#000000" font-family="sans-serif" font-size="13" lengthAdjust="spacing" textLength="147" x="219.5" y="992.9482">Update UI with new stake</text><polygon fill="#191919" points="200.5,1037.1563,210.5,1041.1563,200.5,1045.1563,204.5,1041.1563" style="stroke:#191919;stroke-width:1.0;"/><line style="stroke:#191919;stroke-width:1.0;" x1="22.5" x2="206.5" y1="1041.1563" y2="1041.1563"/><text fill="#000000" font-family="sans-serif" font-size="13" lengthAdjust="spacing" textLength="86" x="29.5" y="1036.2998">View Analytics</text><polygon fill="#191919" points="993.5,1083.8594,1003.5,1087.8594,993.5,1091.8594,997.5,1087.8594" style="stroke:#191919;stroke-width:1.0;"/><line style="stroke:#191919;stroke-width:1.0;" x1="212.5" x2="999.5" y1="1087.8594" y2="1087.8594"/><text fill="#000000" font-family="sans-serif" font-size="13" lengthAdjust="spacing" textLength="111" x="219.5" y="1066.6514">GET /api/analytics/</text><text fill="#000000" font-family="sans-serif" font-size="13" lengthAdjust="spacing" textLength="106" x="219.5" y="1083.0029">(refetch every 30s)</text><polygon fill="#191919" points="1263.5,1130.5625,1273.5,1134.5625,1263.5,1138.5625,1267.5,1134.5625" style="stroke:#191919;stroke-width:1.0;"/><line style="stroke:#191919;stroke-width:1.0;" x1="1005.5" x2="1269.5" y1="1134.5625" y2="1134.5625"/><text fill="#000000" font-family="sans-serif" font-size="13" lengthAdjust="spacing" textLength="124" x="1012.5" y="1113.3545">Aggregation pipelines</text><text fill="#000000" font-family="sans-serif" font-size="13" lengthAdjust="spacing" textLength="119" x="1012.5" y="1129.7061">($sum with $convert)</text><polygon fill="#191919" points="1016.5,1160.9141,1006.5,1164.9141,1016.5,1168.9141,1012.5,1164.9141" style="stroke:#191919;stroke-width:1.0;"/><line style="stroke:#191919;stroke-width:1.0;stroke-dasharray:2.0,2.0;" x1="1010.5" x2="1274.5" y1="1164.9141" y2="1164.9141"/><text fill="#000000" font-family="sans-serif" font-size="13" lengthAdjust="spacing" textLength="156" x="1022.5" y="1160.0576">TVL, users, tier distribution</text><polygon fill="#191919" points="223.5,1191.2656,213.5,1195.2656,223.5,1199.2656,219.5,1195.2656" style="stroke:#191919;stroke-width:1.0;"/><line style="stroke:#191919;stroke-width:1.0;stroke-dasharray:2.0,2.0;" x1="217.5" x2="1004.5" y1="1195.2656" y2="1195.2656"/><text fill="#000000" font-family="sans-serif" font-size="13" lengthAdjust="spacing" textLength="115" x="229.5" y="1190.4092">Formatted analytics</text><rect fill="#EEEEEE" height="3" rx="3.5" ry="3.5" style="stroke:#EEEEEE;stroke-width:1.0;" width="1347" x="0" y="1224.4414"/><line style="stroke:#191919;stroke-width:0.5;" x1="0" x2="1347" y1="1224.4414" y2="1224.4414"/><line style="stroke:#191919;stroke-width:0.5;" x1="0" x2="1347" y1="1227.4414" y2="1227.4414"/><rect fill="#EEEEEE" height="24.3516" rx="3.5" ry="3.5" style="stroke:#191919;stroke-width:1.0;" width="172" x="587.5" y="1213.2656"/><text fill="#191919" font-family="sans-serif" font-size="13" font-weight="bold" lengthAdjust="spacing" textLength="154" x="593.5" y="1230.7607">Phase 4: Rewards Claim</text><polygon fill="#191919" points="200.5,1265.9688,210.5,1269.9688,200.5,1273.9688,204.5,1269.9688" style="stroke:#191919;stroke-width:1.0;"/><line style="stroke:#191919;stroke-width:1.0;" x1="22.5" x2="206.5" y1="1269.9688" y2="1269.9688"/><text fill="#000000" font-family="sans-serif" font-size="13" lengthAdjust="spacing" textLength="130" x="29.5" y="1265.1123">Click "Claim Rewards"</text><polygon fill="#191919" points="438.5,1296.3203,448.5,1300.3203,438.5,1304.3203,442.5,1300.3203" style="stroke:#191919;stroke-width:1.0;"/><line style="stroke:#191919;stroke-width:1.0;" x1="212.5" x2="444.5" y1="1300.3203" y2="1300.3203"/><text fill="#000000" font-family="sans-serif" font-size="13" lengthAdjust="spacing" textLength="152" x="219.5" y="1295.4639">claimRewards(stakeIndex)</text><polygon fill="#191919" points="625.5,1326.6719,635.5,1330.6719,625.5,1334.6719,629.5,1330.6719" style="stroke:#191919;stroke-width:1.0;"/><line style="stroke:#191919;stroke-width:1.0;" x1="450.5" x2="631.5" y1="1330.6719" y2="1330.6719"/><text fill="#000000" font-family="sans-serif" font-size="13" lengthAdjust="spacing" textLength="163" x="457.5" y="1325.8154">StakingPool.claimRewards()</text><line style="stroke:#191919;stroke-width:1.0;" x1="637.5" x2="679.5" y1="1377.375" y2="1377.375"/><line style="stroke:#191919;stroke-width:1.0;" x1="679.5" x2="679.5" y1="1377.375" y2="1390.375"/><line style="stroke:#191919;stroke-width:1.0;" x1="638.5" x2="679.5" y1="1390.375" y2="1390.375"/><polygon fill="#191919" points="648.5,1386.375,638.5,1390.375,648.5,1394.375,644.5,1390.375" style="stroke:#191919;stroke-width:1.0;"/><text fill="#000000" font-family="sans-serif" font-size="13" lengthAdjust="spacing" textLength="103" x="644.5" y="1356.167">Calculate rewards</text><text fill="#000000" font-family="sans-serif" font-size="13" lengthAdjust="spacing" textLength="71" x="644.5" y="1372.5186">Transfer DAI</text><polygon fill="#191919" points="461.5,1416.7266,451.5,1420.7266,461.5,1424.7266,457.5,1420.7266" style="stroke:#191919;stroke-width:1.0;"/><line style="stroke:#191919;stroke-width:1.0;stroke-dasharray:2.0,2.0;" x1="455.5" x2="636.5" y1="1420.7266" y2="1420.7266"/><text fill="#000000" font-family="sans-serif" font-size="13" lengthAdjust="spacing" textLength="137" x="467.5" y="1415.8701">Event: RewardsClaimed</text><polygon fill="#191919" points="223.5,1447.0781,213.5,1451.0781,223.5,1455.0781,219.5,1451.0781" style="stroke:#191919;stroke-width:1.0;"/><line style="stroke:#191919;stroke-width:1.0;stroke-dasharray:2.0,2.0;" x1="217.5" x2="449.5" y1="1451.0781" y2="1451.0781"/><text fill="#000000" font-family="sans-serif" font-size="13" lengthAdjust="spacing" textLength="127" x="229.5" y="1446.2217">Transaction confirmed</text><polygon fill="#191919" points="648.5,1477.4297,638.5,1481.4297,648.5,1485.4297,644.5,1481.4297" style="stroke:#191919;stroke-width:1.0;"/><line style="stroke:#191919;stroke-width:1.0;" x1="642.5" x2="811.5" y1="1481.4297" y2="1481.4297"/><text fill="#000000" font-family="sans-serif" font-size="13" lengthAdjust="spacing" textLength="81" x="654.5" y="1476.5732">Poll for events</text><polygon fill="#191919" points="800.5,1507.7813,810.5,1511.7813,800.5,1515.7813,804.5,1511.7813" style="stroke:#191919;stroke-width:1.0;"/><line style="stroke:#191919;stroke-width:1.0;stroke-dasharray:2.0,2.0;" x1="637.5" x2="806.5" y1="1511.7813" y2="1511.7813"/><text fill="#000000" font-family="sans-serif" font-size="13" lengthAdjust="spacing" textLength="131" x="644.5" y="1506.9248">RewardsClaimed event</text><polygon fill="#191919" points="1263.5,1554.4844,1273.5,1558.4844,1263.5,1562.4844,1267.5,1558.4844" style="stroke:#191919;stroke-width:1.0;"/><line style="stroke:#191919;stroke-width:1.0;" x1="812.5" x2="1269.5" y1="1558.4844" y2="1558.4844"/><text fill="#000000" font-family="sans-serif" font-size="13" lengthAdjust="spacing" textLength="210" x="819.5" y="1537.2764">Update stake.total_rewards_claimed</text><text fill="#000000" font-family="sans-serif" font-size="13" lengthAdjust="spacing" textLength="203" x="819.5" y="1553.6279">Update user.total_rewards_claimed</text><rect fill="#EEEEEE" height="3" rx="3.5" ry="3.5" style="stroke:#EEEEEE;stroke-width:1.0;" width="1347" x="0" y="1587.6602"/><line style="stroke:#191919;stroke-width:0.5;" x1="0" x2="1347" y1="1587.6602" y2="1587.6602"/><line style="stroke:#191919;stroke-width:0.5;" x1="0" x2="1347" y1="1590.6602" y2="1590.6602"/><rect fill="#EEEEEE" height="24.3516" rx="3.5" ry="3.5" style="stroke:#191919;stroke-width:1.0;" width="126" x="610.5" y="1576.4844"/><text fill="#191919" font-family="sans-serif" font-size="13" font-weight="bold" lengthAdjust="spacing" textLength="108" x="616.5" y="1593.9795">Phase 5: Unstake</text><polygon fill="#191919" points="200.5,1629.1875,210.5,1633.1875,200.5,1637.1875,204.5,1633.1875" style="stroke:#191919;stroke-width:1.0;"/><line style="stroke:#191919;stroke-width:1.0;" x1="22.5" x2="206.5" y1="1633.1875" y2="1633.1875"/><text fill="#000000" font-family="sans-serif" font-size="13" lengthAdjust="spacing" textLength="91" x="29.5" y="1628.3311">Click "Unstake"</text><polygon fill="#191919" points="438.5,1659.5391,448.5,1663.5391,438.5,1667.5391,442.5,1663.5391" style="stroke:#191919;stroke-width:1.0;"/><line style="stroke:#191919;stroke-width:1.0;" x1="212.5" x2="444.5" y1="1663.5391" y2="1663.5391"/><text fill="#000000" font-family="sans-serif" font-size="13" lengthAdjust="spacing" textLength="117" x="219.5" y="1658.6826">unstake(stakeIndex)</text><polygon fill="#191919" points="625.5,1689.8906,635.5,1693.8906,625.5,1697.8906,629.5,1693.8906" style="stroke:#191919;stroke-width:1.0;"/><line style="stroke:#191919;stroke-width:1.0;" x1="450.5" x2="631.5" y1="1693.8906" y2="1693.8906"/><text fill="#000000" font-family="sans-serif" font-size="13" lengthAdjust="spacing" textLength="128" x="457.5" y="1689.0342">StakingPool.unstake()</text><line style="stroke:#191919;stroke-width:1.0;" x1="637.5" x2="679.5" y1="1740.5938" y2="1740.5938"/><line style="stroke:#191919;stroke-width:1.0;" x1="679.5" x2="679.5" y1="1740.5938" y2="1753.5938"/><line style="stroke:#191919;stroke-width:1.0;" x1="638.5" x2="679.5" y1="1753.5938" y2="1753.5938"/><polygon fill="#191919" points="648.5,1749.5938,638.5,1753.5938,648.5,1757.5938,644.5,1753.5938" style="stroke:#191919;stroke-width:1.0;"/><text fill="#000000" font-family="sans-serif" font-size="13" lengthAdjust="spacing" textLength="130" x="644.5" y="1719.3857">Calculate final rewards</text><text fill="#000000" font-family="sans-serif" font-size="13" lengthAdjust="spacing" textLength="132" x="644.5" y="1735.7373">Transfer DAI + rewards</text><polygon fill="#191919" points="461.5,1779.9453,451.5,1783.9453,461.5,1787.9453,457.5,1783.9453" style="stroke:#191919;stroke-width:1.0;"/><line style="stroke:#191919;stroke-width:1.0;stroke-dasharray:2.0,2.0;" x1="455.5" x2="636.5" y1="1783.9453" y2="1783.9453"/><text fill="#000000" font-family="sans-serif" font-size="13" lengthAdjust="spacing" textLength="95" x="467.5" y="1779.0889">Event: Unstaked</text><polygon fill="#191919" points="223.5,1810.2969,213.5,1814.2969,223.5,1818.2969,219.5,1814.2969" style="stroke:#191919;stroke-width:1.0;"/><line style="stroke:#191919;stroke-width:1.0;stroke-dasharray:2.0,2.0;" x1="217.5" x2="449.5" y1="1814.2969" y2="1814.2969"/><text fill="#000000" font-family="sans-serif" font-size="13" lengthAdjust="spacing" textLength="127" x="229.5" y="1809.4404">Transaction confirmed</text><line style="stroke:#191919;stroke-width:1.0;" x1="212.5" x2="254.5" y1="1844.6484" y2="1844.6484"/><line style="stroke:#191919;stroke-width:1.0;" x1="254.5" x2="254.5" y1="1844.6484" y2="1857.6484"/><line style="stroke:#191919;stroke-width:1.0;" x1="213.5" x2="254.5" y1="1857.6484" y2="1857.6484"/><polygon fill="#191919" points="223.5,1853.6484,213.5,1857.6484,223.5,1861.6484,219.5,1857.6484" style="stroke:#191919;stroke-width:1.0;"/><text fill="#000000" font-family="sans-serif" font-size="13" lengthAdjust="spacing" textLength="224" x="219.5" y="1839.792">Force refetch (immediate + 1.5s delay)</text><polygon fill="#191919" points="648.5,1884,638.5,1888,648.5,1892,644.5,1888" style="stroke:#191919;stroke-width:1.0;"/><line style="stroke:#191919;stroke-width:1.0;" x1="642.5" x2="811.5" y1="1888" y2="1888"/><text fill="#000000" font-family="sans-serif" font-size="13" lengthAdjust="spacing" textLength="151" x="654.5" y="1883.1436">Poll for events (2s interval)</text><polygon fill="#191919" points="800.5,1914.3516,810.5,1918.3516,800.5,1922.3516,804.5,1918.3516" style="stroke:#191919;stroke-width:1.0;"/><line style="stroke:#191919;stroke-width:1.0;stroke-dasharray:2.0,2.0;" x1="637.5" x2="806.5" y1="1918.3516" y2="1918.3516"/><text fill="#000000" font-family="sans-serif" font-size="13" lengthAdjust="spacing" textLength="89" x="644.5" y="1913.4951">Unstaked event</text><polygon fill="#191919" points="1263.5,1961.0547,1273.5,1965.0547,1263.5,1969.0547,1267.5,1965.0547" style="stroke:#191919;stroke-width:1.0;"/><line style="stroke:#191919;stroke-width:1.0;" x1="812.5" x2="1269.5" y1="1965.0547" y2="1965.0547"/><text fill="#000000" font-family="sans-serif" font-size="13" lengthAdjust="spacing" textLength="190" x="819.5" y="1943.8467">Update stake.status = 'unstaked'</text><text fill="#000000" font-family="sans-serif" font-size="13" lengthAdjust="spacing" textLength="103" x="819.5" y="1960.1982">Update user stats</text><polygon fill="#191919" points="1016.5,1991.4063,1006.5,1995.4063,1016.5,1999.4063,1012.5,1995.4063" style="stroke:#191919;stroke-width:1.0;"/><line style="stroke:#191919;stroke-width:1.0;stroke-dasharray:2.0,2.0;" x1="1010.5" x2="1274.5" y1="1995.4063" y2="1995.4063"/><text fill="#000000" font-family="sans-serif" font-size="13" lengthAdjust="spacing" textLength="77" x="1022.5" y="1990.5498">Updated data</text><polygon fill="#191919" points="223.5,2021.7578,213.5,2025.7578,223.5,2029.7578,219.5,2025.7578" style="stroke:#191919;stroke-width:1.0;"/><line style="stroke:#191919;stroke-width:1.0;stroke-dasharray:2.0,2.0;" x1="217.5" x2="1004.5" y1="2025.7578" y2="2025.7578"/><text fill="#000000" font-family="sans-serif" font-size="13" lengthAdjust="spacing" textLength="181" x="229.5" y="2020.9014">Refetch returns updated stakes</text><line style="stroke:#191919;stroke-width:1.0;" x1="212.5" x2="254.5" y1="2056.1094" y2="2056.1094"/><line style="stroke:#191919;stroke-width:1.0;" x1="254.5" x2="254.5" y1="2056.1094" y2="2069.1094"/><line style="stroke:#191919;stroke-width:1.0;" x1="213.5" x2="254.5" y1="2069.1094" y2="2069.1094"/><polygon fill="#191919" points="223.5,2065.1094,213.5,2069.1094,223.5,2073.1094,219.5,2069.1094" style="stroke:#191919;stroke-width:1.0;"/><text fill="#000000" font-family="sans-serif" font-size="13" lengthAdjust="spacing" textLength="171" x="219.5" y="2051.2529">Remove from active stakes UI</text><rect fill="#EEEEEE" height="3" rx="3.5" ry="3.5" style="stroke:#EEEEEE;stroke-width:1.0;" width="1347" x="0" y="2098.2852"/><line style="stroke:#191919;stroke-width:0.5;" x1="0" x2="1347" y1="2098.2852" y2="2098.2852"/><line style="stroke:#191919;stroke-width:0.5;" x1="0" x2="1347" y1="2101.2852" y2="2101.2852"/><rect fill="#EEEEEE" height="24.3516" rx="3.5" ry="3.5" style="stroke:#191919;stroke-width:1.0;" width="258" x="544.5" y="2087.1094"/><text fill="#191919" font-family="sans-serif" font-size="13" font-weight="bold" lengthAdjust="spacing" textLength="240" x="550.5" y="2104.6045">Optional: Celery Metrics (Background)</text><path d="M1038,2129.9609 L1038,2262.9609 A3.5,3.5 0 0 0 1041.5,2266.4609 L1338.5,2266.4609 A3.5,3.5 0 0 0 1342,2262.9609 L1342,2136.4609 L1332,2126.4609 L1041.5,2126.4609 A3.5,3.5 0 0 0 1038,2129.9609 " fill="#E5E5E5" style="stroke:#191919;stroke-width:1.5;"/><path d="M1332,2126.4609 L1332,2134.7109 A1.75,1.75 0 0 0 1333.75,2136.4609 L1342,2136.4609 L1332,2126.4609 " fill="#E5E5E5" style="stroke:#191919;stroke-width:1.5;"/><text fill="#191919" font-family="sans-serif" font-size="13" lengthAdjust="spacing" textLength="204" x="1044" y="2144.9561">Celery Beat triggers periodic tasks:</text><text fill="#191919" font-family="sans-serif" font-size="13" lengthAdjust="spacing" textLength="158" x="1044" y="2161.3076">- snapshot_tvl (every 5 min)</text><text fill="#191919" font-family="sans-serif" font-size="13" lengthAdjust="spacing" textLength="178" x="1044" y="2177.6592">- snapshot_users (every 5 min)</text><text fill="#191919" font-family="sans-serif" font-size="13" lengthAdjust="spacing" textLength="241" x="1044" y="2194.0107">- snapshot_tier_distribution (every 10 min)</text><text fill="#191919" font-family="sans-serif" font-size="13" lengthAdjust="spacing" textLength="226" x="1044" y="2210.3623">- calculate_effective_apy (every 15 min)</text><text fill="#191919" font-family="sans-serif" font-size="13" lengthAdjust="spacing" textLength="4" x="1044" y="2226.7139">&#160;</text><text fill="#191919" font-family="sans-serif" font-size="13" lengthAdjust="spacing" textLength="283" x="1044" y="2243.0654">Stores historical metrics in DB.metrics collection</text><text fill="#191919" font-family="sans-serif" font-size="13" lengthAdjust="spacing" textLength="238" x="1044" y="2259.417">(Not currently used by frontend analytics)</text><polygon fill="#191919" points="1263.5,2306.9766,1273.5,2310.9766,1263.5,2314.9766,1267.5,2310.9766" style="stroke:#191919;stroke-width:1.0;"/><line style="stroke:#191919;stroke-width:1.0;" x1="1104.5" x2="1269.5" y1="2310.9766" y2="2310.9766"/><text fill="#000000" font-family="sans-serif" font-size="13" lengthAdjust="spacing" textLength="115" x="1111.5" y="2289.7686">metrics.insert_one()</text><text fill="#000000" font-family="sans-serif" font-size="13" lengthAdjust="spacing" textLength="124" x="1111.5" y="2306.1201">(historical snapshots)</text><!--SRC=[ZLPRJ-D657wVNt6Aa72q42xRz24gbH87gbGB6n5ONf2imPx4qzWprimu4AtsjJ-WFx6_f6Sk1Zk45bw8vrpcVESxb_d9vAnaK5Ab2Q6faGhkD5Eaeihmb5TK6DYxL58O9h874LspPzF_KyCdkAVBalVsW6gulEZgtzEYO0QrhvYXLrIll9e_xghEyMO3CVfNU3kQp0rTSR6SILbugtdSjHWNCbsbEUK2ld2DOJ65PhEDoQNm5itn5eW20u7HREfqy7zN7BE2gGtSIxLo3hzMXaj1Gn3-c6JKq4Ug6UnTIR6Kax4JJiQ4d9_3BBUIqo5O20nYnQXr0T4JDpcCQYEFHbMbv1gTmlaviNc6ezymUqEumFmgE3qvEO79Q8hPdMCugO5RZhTUNZHgSSxIbTF0LCedAb96Q65Wr7p1hozE2E2VD_M97m9rrxDsZWzX4FHxpa18mq3nPOxgWsTuh1SB36o1PR6eJQqOQ0jEErtlrbumZuVMHR-vmFkQnt3Kkhq13waK2wvAbdMy18XIU3qMlsXXvH7IHUAYY1geXs0mJzEiHxeXjN3slKMFsA2y52jEQ4I7rLr6DW4Fmd4MC89YgLGPsK9niMR218wzUaQs8DnQnrZDblnNhAybSXQym4p9b6cD8K8qaqLXVx2rBSCpxKgagUGcPAlao13ioMeAex5K5mZ0TGNyyzVVOAJxtMi2RtnqO_RMdGjU5J5eZC8aDHVcRF1BWZScfItux14psBQPZ0CNki-5jZPIO9OVH8qVkbzNs37CdUrpaRwrLVGfyJWwzgraVHv2CtvWWkq7DsoXcCvjUdnDO2iFuVUBMpYc5Jzs5nz_frc6Mlh7iOyEiwJOWfaq3md-h7i43RSmBBZ8ek_MHH8S75gHgVKG3YoZQtRmeqScOvTPT_78dGO7K20-xpVKmX_phzTOIRgI2A_LoNSkCt0t1JSTB9_E1UcCXMySpqSuXJOugFHElBIH7h_5UD85ELek5LlweLJnYc6zkSpiwxhqOUm7vhiGRxzzEGINLzzea25AnHzhwwc3zbAgaXfRNYzXjQZyUOZaFL6LQOWBoilj8HWN76jupyk2vjvMuwTM66IHozXKPEpvlpg_Oz8U034jqhgmD2WlVH2tOIQu0RgxyuCd5-M7U__THlR5_xPNkxViw5PBQ2WYbuQ-aOOMIK2IfDxmGGGTIzzkbHP10tGf_F3RJKsGRfDI- -CFyj5exwO2Mn1Nn4v2S2s6ytUe2U5za9JNPiIoJMqH-EQ9U8bYReFv1AVzWOQC5NJJ-ryM8JhJmEqcjol-BQTDU1zXqqyTE8U3aAxieCEb6qkwqwPUce5zf7IwyYO0KmmtkD1G1yMmob_pSCDANBnWzmdGpboxcxeoQHv5I9X_Bk43Js6JGpIcwMgfP2qojxZSCm9zgV1oEhIFf60pnWM4ovSlbpXHe6AAouodOF1vfeVa2BIWbSwbISowWCYFiW6KNFJQGZUFtXVREPMqvrIZUdhIwAPDpIKC7paERaAhpOjYS4hc-2Z65EJeJ29OhCuoeCOdw6JSRxvIh0RcYen4rz90MYk5F1SRIrW6ZnkRMB_8NgPZppvktAEB49-ffXg2rwsr6hMYQB2Yaty1]--></g></svg>