<?xml version="1.0" encoding="us-ascii" standalone="no"?><svg xmlns="http://www.w3.org/2000/svg" xmlns:xlink="http://www.w3.org/1999/xlink" contentStyleType="text/css" height="1087px" preserveAspectRatio="none" style="width:1048px;height:1087px;background:#F9F9F9;" version="1.1" viewBox="0 0 1048 1087" width="1048px" zoomAndPan="magnify"><defs/><g><rect fill="#F9F9F9" height="1087" style="stroke:none;stroke-width:1.0;" width="1048" x="0" y="0"/><line style="stroke:#393939;stroke-width:0.5;stroke-dasharray:5.0,5.0;" x1="22" x2="22" y1="82.6094" y2="1005.4531"/><line style="stroke:#393939;stroke-width:0.5;stroke-dasharray:5.0,5.0;" x1="143.5" x2="143.5" y1="82.6094" y2="1005.4531"/><line style="stroke:#393939;stroke-width:0.5;stroke-dasharray:5.0,5.0;" x1="324" x2="324" y1="82.6094" y2="1005.4531"/><line style="stroke:#393939;stroke-width:0.5;stroke-dasharray:5.0,5.0;" x1="470.5" x2="470.5" y1="82.6094" y2="1005.4531"/><line style="stroke:#393939;stroke-width:0.5;stroke-dasharray:5.0,5.0;" x1="629" x2="629" y1="82.6094" y2="1005.4531"/><line style="stroke:#393939;stroke-width:0.5;stroke-dasharray:5.0,5.0;" x1="799.5" x2="799.5" y1="82.6094" y2="1005.4531"/><line style="stroke:#393939;stroke-width:0.5;stroke-dasharray:5.0,5.0;" x1="902.5" x2="902.5" y1="82.6094" y2="1005.4531"/><line style="stroke:#393939;stroke-width:0.5;stroke-dasharray:5.0,5.0;" x1="991.5" x2="991.5" y1="82.6094" y2="1005.4531"/><text fill="#191919" font-family="sans-serif" font-size="14" lengthAdjust="spacing" textLength="29" x="5" y="79.5332">User</text><ellipse cx="22.5" cy="13.5" fill="#191919" rx="8" ry="8" style="stroke:#191919;stroke-width:0.5;"/><path d="M22.5,21.5 L22.5,48.5 M9.5,29.5 L35.5,29.5 M22.5,48.5 L9.5,63.5 M22.5,48.5 L35.5,63.5 " fill="none" style="stroke:#191919;stroke-width:0.5;"/><text fill="#191919" font-family="sans-serif" font-size="14" lengthAdjust="spacing" textLength="29" x="5" y="1018.9863">User</text><ellipse cx="22.5" cy="1030.5625" fill="#191919" rx="8" ry="8" style="stroke:#191919;stroke-width:0.5;"/><path d="M22.5,1038.5625 L22.5,1065.5625 M9.5,1046.5625 L35.5,1046.5625 M22.5,1065.5625 L9.5,1080.5625 M22.5,1065.5625 L35.5,1080.5625 " fill="none" style="stroke:#191919;stroke-width:0.5;"/><rect fill="#E55756" height="49.2188" rx="3.5" ry="3.5" style="stroke:#191919;stroke-width:1.5;" width="72" x="107.5" y="32.3906"/><text fill="#F9F9F9" font-family="sans-serif" font-size="14" lengthAdjust="spacing" textLength="58" x="114.5" y="53.9238">Frontend</text><text fill="#F9F9F9" font-family="sans-serif" font-size="14" lengthAdjust="spacing" textLength="51" x="118" y="71.5332">(Next.js)</text><rect fill="#E55756" height="49.2188" rx="3.5" ry="3.5" style="stroke:#191919;stroke-width:1.5;" width="72" x="107.5" y="1004.4531"/><text fill="#F9F9F9" font-family="sans-serif" font-size="14" lengthAdjust="spacing" textLength="58" x="114.5" y="1025.9863">Frontend</text><text fill="#F9F9F9" font-family="sans-serif" font-size="14" lengthAdjust="spacing" textLength="51" x="118" y="1043.5957">(Next.js)</text><rect fill="#E55756" height="49.2188" rx="3.5" ry="3.5" style="stroke:#191919;stroke-width:1.5;" width="109" x="270" y="32.3906"/><text fill="#F9F9F9" font-family="sans-serif" font-size="14" lengthAdjust="spacing" textLength="95" x="277" y="53.9238">Smart Contract</text><text fill="#F9F9F9" font-family="sans-serif" font-size="14" lengthAdjust="spacing" textLength="57" x="296" y="71.5332">(Staking)</text><rect fill="#E55756" height="49.2188" rx="3.5" ry="3.5" style="stroke:#191919;stroke-width:1.5;" width="109" x="270" y="1004.4531"/><text fill="#F9F9F9" font-family="sans-serif" font-size="14" lengthAdjust="spacing" textLength="95" x="277" y="1025.9863">Smart Contract</text><text fill="#F9F9F9" font-family="sans-serif" font-size="14" lengthAdjust="spacing" textLength="57" x="296" y="1043.5957">(Staking)</text><rect fill="#E55756" height="49.2188" rx="3.5" ry="3.5" style="stroke:#191919;stroke-width:1.5;" width="94" x="423.5" y="32.3906"/><text fill="#F9F9F9" font-family="sans-serif" font-size="14" lengthAdjust="spacing" textLength="80" x="430.5" y="53.9238">Backend API</text><text fill="#F9F9F9" font-family="sans-serif" font-size="14" lengthAdjust="spacing" textLength="44" x="448.5" y="71.5332">(Flask)</text><rect fill="#E55756" height="49.2188" rx="3.5" ry="3.5" style="stroke:#191919;stroke-width:1.5;" width="94" x="423.5" y="1004.4531"/><text fill="#F9F9F9" font-family="sans-serif" font-size="14" lengthAdjust="spacing" textLength="80" x="430.5" y="1025.9863">Backend API</text><text fill="#F9F9F9" font-family="sans-serif" font-size="14" lengthAdjust="spacing" textLength="44" x="448.5" y="1043.5957">(Flask)</text><rect fill="#E55756" height="31.6094" rx="3.5" ry="3.5" style="stroke:#191919;stroke-width:1.5;" width="105" x="577" y="50"/><text fill="#F9F9F9" font-family="sans-serif" font-size="14" lengthAdjust="spacing" textLength="91" x="584" y="71.5332">Celery Worker</text><rect fill="#E55756" height="31.6094" rx="3.5" ry="3.5" style="stroke:#191919;stroke-width:1.5;" width="105" x="577" y="1004.4531"/><text fill="#F9F9F9" font-family="sans-serif" font-size="14" lengthAdjust="spacing" textLength="91" x="584" y="1025.9863">Celery Worker</text><rect fill="#E55756" height="31.6094" rx="3.5" ry="3.5" style="stroke:#191919;stroke-width:1.5;" width="118" x="740.5" y="50"/><text fill="#F9F9F9" font-family="sans-serif" font-size="14" lengthAdjust="spacing" textLength="104" x="747.5" y="71.5332">Chainlink Oracle</text><rect fill="#E55756" height="31.6094" rx="3.5" ry="3.5" style="stroke:#191919;stroke-width:1.5;" width="118" x="740.5" y="1004.4531"/><text fill="#F9F9F9" font-family="sans-serif" font-size="14" lengthAdjust="spacing" textLength="104" x="747.5" y="1025.9863">Chainlink Oracle</text><text fill="#191919" font-family="sans-serif" font-size="14" lengthAdjust="spacing" textLength="62" x="868.5" y="79.5332">MongoDB</text><path d="M884.5,29 C884.5,19 902.5,19 902.5,19 C902.5,19 920.5,19 920.5,29 L920.5,55 C920.5,65 902.5,65 902.5,65 C902.5,65 884.5,65 884.5,55 L884.5,29 " fill="#A4DBD8" style="stroke:#191919;stroke-width:1.5;"/><path d="M884.5,29 C884.5,39 902.5,39 902.5,39 C902.5,39 920.5,39 920.5,29 " fill="none" style="stroke:#191919;stroke-width:1.5;"/><text fill="#191919" font-family="sans-serif" font-size="14" lengthAdjust="spacing" textLength="62" x="868.5" y="1018.9863">MongoDB</text><path d="M884.5,1032.0625 C884.5,1022.0625 902.5,1022.0625 902.5,1022.0625 C902.5,1022.0625 920.5,1022.0625 920.5,1032.0625 L920.5,1058.0625 C920.5,1068.0625 902.5,1068.0625 902.5,1068.0625 C902.5,1068.0625 884.5,1068.0625 884.5,1058.0625 L884.5,1032.0625 " fill="#A4DBD8" style="stroke:#191919;stroke-width:1.5;"/><path d="M884.5,1032.0625 C884.5,1042.0625 902.5,1042.0625 902.5,1042.0625 C902.5,1042.0625 920.5,1042.0625 920.5,1032.0625 " fill="none" style="stroke:#191919;stroke-width:1.5;"/><rect fill="#E55756" height="31.6094" rx="3.5" ry="3.5" style="stroke:#191919;stroke-width:1.5;" width="90" x="946.5" y="50"/><text fill="#F9F9F9" font-family="sans-serif" font-size="14" lengthAdjust="spacing" textLength="76" x="953.5" y="71.5332">Notifications</text><rect fill="#E55756" height="31.6094" rx="3.5" ry="3.5" style="stroke:#191919;stroke-width:1.5;" width="90" x="946.5" y="1004.4531"/><text fill="#F9F9F9" font-family="sans-serif" font-size="14" lengthAdjust="spacing" textLength="76" x="953.5" y="1025.9863">Notifications</text><rect fill="#EEEEEE" height="3" rx="3.5" ry="3.5" style="stroke:#EEEEEE;stroke-width:1.0;" width="1041.5" x="0" y="113.7852"/><line style="stroke:#191919;stroke-width:0.5;" x1="0" x2="1041.5" y1="113.7852" y2="113.7852"/><line style="stroke:#191919;stroke-width:0.5;" x1="0" x2="1041.5" y1="116.7852" y2="116.7852"/><rect fill="#EEEEEE" height="24.3516" rx="3.5" ry="3.5" style="stroke:#191919;stroke-width:1.0;" width="124" x="458.75" y="102.6094"/><text fill="#191919" font-family="sans-serif" font-size="13" font-weight="bold" lengthAdjust="spacing" textLength="106" x="464.75" y="120.1045">Phase 1: Staking</text><polygon fill="#191919" points="131.5,155.3125,141.5,159.3125,131.5,163.3125,135.5,159.3125" style="stroke:#191919;stroke-width:1.0;"/><line style="stroke:#191919;stroke-width:1.0;" x1="22.5" x2="137.5" y1="159.3125" y2="159.3125"/><text fill="#000000" font-family="sans-serif" font-size="13" lengthAdjust="spacing" textLength="91" x="29.5" y="154.4561">Stake 1000 DAI</text><polygon fill="#191919" points="312.5,185.6641,322.5,189.6641,312.5,193.6641,316.5,189.6641" style="stroke:#191919;stroke-width:1.0;"/><line style="stroke:#191919;stroke-width:1.0;" x1="143.5" x2="318.5" y1="189.6641" y2="189.6641"/><text fill="#000000" font-family="sans-serif" font-size="13" lengthAdjust="spacing" textLength="157" x="150.5" y="184.8076">approve(DAI) + stake(1000)</text><line style="stroke:#191919;stroke-width:1.0;" x1="324.5" x2="366.5" y1="236.3672" y2="236.3672"/><line style="stroke:#191919;stroke-width:1.0;" x1="366.5" x2="366.5" y1="236.3672" y2="249.3672"/><line style="stroke:#191919;stroke-width:1.0;" x1="325.5" x2="366.5" y1="249.3672" y2="249.3672"/><polygon fill="#191919" points="335.5,245.3672,325.5,249.3672,335.5,253.3672,331.5,249.3672" style="stroke:#191919;stroke-width:1.0;"/><text fill="#000000" font-family="sans-serif" font-size="13" lengthAdjust="spacing" textLength="53" x="331.5" y="215.1592">Lock DAI</text><text fill="#000000" font-family="sans-serif" font-size="13" lengthAdjust="spacing" textLength="102" x="331.5" y="231.5107">Mint position NFT</text><polygon fill="#191919" points="154.5,275.7188,144.5,279.7188,154.5,283.7188,150.5,279.7188" style="stroke:#191919;stroke-width:1.0;"/><line style="stroke:#191919;stroke-width:1.0;stroke-dasharray:2.0,2.0;" x1="148.5" x2="323.5" y1="279.7188" y2="279.7188"/><text fill="#000000" font-family="sans-serif" font-size="13" lengthAdjust="spacing" textLength="119" x="160.5" y="274.8623">Event: StakeCreated</text><polygon fill="#191919" points="458.5,306.0703,468.5,310.0703,458.5,314.0703,462.5,310.0703" style="stroke:#191919;stroke-width:1.0;"/><line style="stroke:#191919;stroke-width:1.0;" x1="143.5" x2="464.5" y1="310.0703" y2="310.0703"/><text fill="#000000" font-family="sans-serif" font-size="13" lengthAdjust="spacing" textLength="148" x="150.5" y="305.2139">POST /stakes (metadata)</text><polygon fill="#191919" points="890.5,336.4219,900.5,340.4219,890.5,344.4219,894.5,340.4219" style="stroke:#191919;stroke-width:1.0;"/><line style="stroke:#191919;stroke-width:1.0;" x1="470.5" x2="896.5" y1="340.4219" y2="340.4219"/><text fill="#000000" font-family="sans-serif" font-size="13" lengthAdjust="spacing" textLength="107" x="477.5" y="335.5654">Store stake record</text><polygon fill="#191919" points="154.5,366.7734,144.5,370.7734,154.5,374.7734,150.5,370.7734" style="stroke:#191919;stroke-width:1.0;"/><line style="stroke:#191919;stroke-width:1.0;stroke-dasharray:2.0,2.0;" x1="148.5" x2="469.5" y1="370.7734" y2="370.7734"/><text fill="#000000" font-family="sans-serif" font-size="13" lengthAdjust="spacing" textLength="72" x="160.5" y="365.917">Confirmation</text><rect fill="#EEEEEE" height="3" rx="3.5" ry="3.5" style="stroke:#EEEEEE;stroke-width:1.0;" width="1041.5" x="0" y="399.9492"/><line style="stroke:#191919;stroke-width:0.5;" x1="0" x2="1041.5" y1="399.9492" y2="399.9492"/><line style="stroke:#191919;stroke-width:0.5;" x1="0" x2="1041.5" y1="402.9492" y2="402.9492"/><rect fill="#EEEEEE" height="24.3516" rx="3.5" ry="3.5" style="stroke:#191919;stroke-width:1.0;" width="288" x="376.75" y="388.7734"/><text fill="#191919" font-family="sans-serif" font-size="13" font-weight="bold" lengthAdjust="spacing" textLength="270" x="382.75" y="406.2686">Phase 2: Rewards Calculation (p&#233;riodique)</text><polygon fill="#191919" points="335.5,441.4766,325.5,445.4766,335.5,449.4766,331.5,445.4766" style="stroke:#191919;stroke-width:1.0;"/><line style="stroke:#191919;stroke-width:1.0;" x1="329.5" x2="628.5" y1="445.4766" y2="445.4766"/><text fill="#000000" font-family="sans-serif" font-size="13" lengthAdjust="spacing" textLength="110" x="341.5" y="440.6201">Read active stakes</text><polygon fill="#191919" points="787.5,488.1797,797.5,492.1797,787.5,496.1797,791.5,492.1797" style="stroke:#191919;stroke-width:1.0;"/><line style="stroke:#191919;stroke-width:1.0;" x1="629.5" x2="793.5" y1="492.1797" y2="492.1797"/><text fill="#000000" font-family="sans-serif" font-size="13" lengthAdjust="spacing" textLength="107" x="636.5" y="470.9717">Fetch APY factors</text><text fill="#000000" font-family="sans-serif" font-size="13" lengthAdjust="spacing" textLength="90" x="636.5" y="487.3232">(volatility, price)</text><polygon fill="#191919" points="640.5,518.5313,630.5,522.5313,640.5,526.5313,636.5,522.5313" style="stroke:#191919;stroke-width:1.0;"/><line style="stroke:#191919;stroke-width:1.0;stroke-dasharray:2.0,2.0;" x1="634.5" x2="798.5" y1="522.5313" y2="522.5313"/><text fill="#000000" font-family="sans-serif" font-size="13" lengthAdjust="spacing" textLength="89" x="646.5" y="517.6748">Current metrics</text><line style="stroke:#191919;stroke-width:1.0;" x1="629.5" x2="671.5" y1="552.8828" y2="552.8828"/><line style="stroke:#191919;stroke-width:1.0;" x1="671.5" x2="671.5" y1="552.8828" y2="565.8828"/><line style="stroke:#191919;stroke-width:1.0;" x1="630.5" x2="671.5" y1="565.8828" y2="565.8828"/><polygon fill="#191919" points="640.5,561.8828,630.5,565.8828,640.5,569.8828,636.5,565.8828" style="stroke:#191919;stroke-width:1.0;"/><text fill="#000000" font-family="sans-serif" font-size="13" lengthAdjust="spacing" textLength="156" x="636.5" y="548.0264">Calculate dynamic rewards</text><polygon fill="#191919" points="890.5,592.2344,900.5,596.2344,890.5,600.2344,894.5,596.2344" style="stroke:#191919;stroke-width:1.0;"/><line style="stroke:#191919;stroke-width:1.0;" x1="629.5" x2="896.5" y1="596.2344" y2="596.2344"/><text fill="#000000" font-family="sans-serif" font-size="13" lengthAdjust="spacing" textLength="119" x="636.5" y="591.3779">Update user rewards</text><polygon fill="#191919" points="481.5,622.5859,471.5,626.5859,481.5,630.5859,477.5,626.5859" style="stroke:#191919;stroke-width:1.0;"/><line style="stroke:#191919;stroke-width:1.0;" x1="475.5" x2="628.5" y1="626.5859" y2="626.5859"/><text fill="#000000" font-family="sans-serif" font-size="13" lengthAdjust="spacing" textLength="135" x="487.5" y="621.7295">Check notification rules</text><rect fill="#EEEEEE" height="3" rx="3.5" ry="3.5" style="stroke:#EEEEEE;stroke-width:1.0;" width="1041.5" x="0" y="655.7617"/><line style="stroke:#191919;stroke-width:0.5;" x1="0" x2="1041.5" y1="655.7617" y2="655.7617"/><line style="stroke:#191919;stroke-width:0.5;" x1="0" x2="1041.5" y1="658.7617" y2="658.7617"/><rect fill="#EEEEEE" height="24.3516" rx="3.5" ry="3.5" style="stroke:#191919;stroke-width:1.0;" width="148" x="446.75" y="644.5859"/><text fill="#191919" font-family="sans-serif" font-size="13" font-weight="bold" lengthAdjust="spacing" textLength="130" x="452.75" y="662.0811">Phase 3: Notification</text><polygon fill="#191919" points="979.5,697.2891,989.5,701.2891,979.5,705.2891,983.5,701.2891" style="stroke:#191919;stroke-width:1.0;"/><line style="stroke:#191919;stroke-width:1.0;" x1="470.5" x2="985.5" y1="701.2891" y2="701.2891"/><text fill="#000000" font-family="sans-serif" font-size="13" lengthAdjust="spacing" textLength="117" x="477.5" y="696.4326">APY boost detected</text><polygon fill="#191919" points="33.5,727.6406,23.5,731.6406,33.5,735.6406,29.5,731.6406" style="stroke:#191919;stroke-width:1.0;"/><line style="stroke:#191919;stroke-width:1.0;stroke-dasharray:2.0,2.0;" x1="27.5" x2="990.5" y1="731.6406" y2="731.6406"/><text fill="#000000" font-family="sans-serif" font-size="13" lengthAdjust="spacing" textLength="96" x="39.5" y="726.7842">Push/Email alert</text><rect fill="#EEEEEE" height="3" rx="3.5" ry="3.5" style="stroke:#EEEEEE;stroke-width:1.0;" width="1041.5" x="0" y="760.8164"/><line style="stroke:#191919;stroke-width:0.5;" x1="0" x2="1041.5" y1="760.8164" y2="760.8164"/><line style="stroke:#191919;stroke-width:0.5;" x1="0" x2="1041.5" y1="763.8164" y2="763.8164"/><rect fill="#EEEEEE" height="24.3516" rx="3.5" ry="3.5" style="stroke:#191919;stroke-width:1.0;" width="138" x="451.75" y="749.6406"/><text fill="#191919" font-family="sans-serif" font-size="13" font-weight="bold" lengthAdjust="spacing" textLength="120" x="457.75" y="767.1357">Phase 4: Unstaking</text><polygon fill="#191919" points="131.5,802.3438,141.5,806.3438,131.5,810.3438,135.5,806.3438" style="stroke:#191919;stroke-width:1.0;"/><line style="stroke:#191919;stroke-width:1.0;" x1="22.5" x2="137.5" y1="806.3438" y2="806.3438"/><text fill="#000000" font-family="sans-serif" font-size="13" lengthAdjust="spacing" textLength="97" x="29.5" y="801.4873">Unstake position</text><polygon fill="#191919" points="312.5,832.6953,322.5,836.6953,312.5,840.6953,316.5,836.6953" style="stroke:#191919;stroke-width:1.0;"/><line style="stroke:#191919;stroke-width:1.0;" x1="143.5" x2="318.5" y1="836.6953" y2="836.6953"/><text fill="#000000" font-family="sans-serif" font-size="13" lengthAdjust="spacing" textLength="109" x="150.5" y="831.8389">unstake(positionId)</text><line style="stroke:#191919;stroke-width:1.0;" x1="324.5" x2="366.5" y1="883.3984" y2="883.3984"/><line style="stroke:#191919;stroke-width:1.0;" x1="366.5" x2="366.5" y1="883.3984" y2="896.3984"/><line style="stroke:#191919;stroke-width:1.0;" x1="325.5" x2="366.5" y1="896.3984" y2="896.3984"/><polygon fill="#191919" points="335.5,892.3984,325.5,896.3984,335.5,900.3984,331.5,896.3984" style="stroke:#191919;stroke-width:1.0;"/><text fill="#000000" font-family="sans-serif" font-size="13" lengthAdjust="spacing" textLength="132" x="331.5" y="862.1904">Transfer DAI + rewards</text><text fill="#000000" font-family="sans-serif" font-size="13" lengthAdjust="spacing" textLength="104" x="331.5" y="878.542">Burn position NFT</text><polygon fill="#191919" points="154.5,922.75,144.5,926.75,154.5,930.75,150.5,926.75" style="stroke:#191919;stroke-width:1.0;"/><line style="stroke:#191919;stroke-width:1.0;stroke-dasharray:2.0,2.0;" x1="148.5" x2="323.5" y1="926.75" y2="926.75"/><text fill="#000000" font-family="sans-serif" font-size="13" lengthAdjust="spacing" textLength="95" x="160.5" y="921.8936">Event: Unstaked</text><polygon fill="#191919" points="458.5,953.1016,468.5,957.1016,458.5,961.1016,462.5,957.1016" style="stroke:#191919;stroke-width:1.0;"/><line style="stroke:#191919;stroke-width:1.0;" x1="143.5" x2="464.5" y1="957.1016" y2="957.1016"/><text fill="#000000" font-family="sans-serif" font-size="13" lengthAdjust="spacing" textLength="96" x="150.5" y="952.2451">POST /unstakes</text><polygon fill="#191919" points="890.5,983.4531,900.5,987.4531,890.5,991.4531,894.5,987.4531" style="stroke:#191919;stroke-width:1.0;"/><line style="stroke:#191919;stroke-width:1.0;" x1="470.5" x2="896.5" y1="987.4531" y2="987.4531"/><text fill="#000000" font-family="sans-serif" font-size="13" lengthAdjust="spacing" textLength="78" x="477.5" y="982.5967">Archive stake</text><!--SRC=[XPBTZjCm48Nl_HH3hnBni-NdAbAHshIHAh7TQjCLGkgDDvbkJ18xs4wXZyHpy6ACxRIai19taUVBp9mpvuMji4LekJQCyS8g3Gy6DUkujg8G7PSM9fbMqg8izpBQu0_xvgk99y0DPAjhBgSs5bA2DRKYEhUy5l8fq7bwJIzuKLDJc6_NX6ODDtK0wU6QJB51VOBFIjUeFH8-_w8gBcGZP0rtDBv13uPFLdBB7xb1cDmg-QIM2rzSBguxR9GL1r5mAvGqdl0lZCrciAtSxsyJ63J1RCQSK_3w8_aGdga-dKvXEL-pREKAUPe0xpgjZXZHQmmlmJWkSbpCylGCVL95xVxRorj1ctJA2BS4RBATfuOXgoDAEynADNABvJ29F4jWUvVluCPFC12rQBdJ7JCgEcQvSBygZM49q5WeNORgC81kTn2wzGwCPBzBu1w_SrqQI7bJz8q78Ef-_TH2bU9RZx4p99pbBEeUUGaK174S9feH40wJG8Qsg6ZzBt3myJEKXQDo0nfXJw-WqwB0c0NSxnbwqAwzrcG7a4vYnhqlnB0hGdcIl1K5IVOgHgmpvQ4h7TIxS_vBU6lJ2kb2SXGGq7r3YlwOz3w1SO2S7uFn_Zdn8X-LCXPAj5Yuu_cAL-MoH1ViJNMpQhbeW5FcxQZz1zfJckV35mfuoSqeVdqeHUVIkXpdRgUvD0TgHDcZS0xYztBHQ_c_50v3dqdWCDECWpVNHNK90liD]--></g></svg>